<?xml version="1.0" encoding="utf-8"?>
<!-- Generator: Adobe Illustrator 19.2.1, SVG Export Plug-In . SVG Version: 6.00 Build 0)  -->
<svg version="1.1" id="Ebene_1" xmlns="http://www.w3.org/2000/svg" xmlns:xlink="http://www.w3.org/1999/xlink" x="0px" y="0px"
	 viewBox="0 0 612.1 259.6" style="enable-background:new 0 0 612.1 259.6;" xml:space="preserve">
<style type="text/css">
	.st0{fill:none;}
	.st1{fill:#FF8700;}
</style>
<g>
	<rect class="st0" width="612.1" height="259.6"/>
	<g>
		<path class="st1" d="M162.1,154.2c-1.9,0.6-3.4,0.8-5.4,0.8c-16.2,0-39.9-56.5-39.9-75.3c0-6.9,1.6-9.2,4-11.2
			C101,70.7,77.2,78,69.6,87.2C68,89.5,67,93.1,67,97.8c0,29.4,31.3,96,53.4,96C130.7,193.8,147.9,176.9,162.1,154.2"/>
		<path class="st1" d="M151.8,66.4c20.4,0,40.9,3.3,40.9,14.8c0,23.4-14.9,51.8-22.4,51.8c-13.5,0-30.4-37.6-30.4-56.4
			C139.9,68.1,143.2,66.4,151.8,66.4"/>
	</g>
	<g>
		<path d="M261.3,107.9v86h-12v-86H228V97.5h54.4v10.5L261.3,107.9L261.3,107.9z"/>
		<path d="M324.4,149.1v44.8H312v-44.8l-24.7-51.7h13.2l18.2,40.1l18.2-40.1h12.5L324.4,149.1z"/>
		<path d="M387.5,157.5h-11.6v36.4h-12V97.5c0,0,11.8-1,23.3-1c20.9,0,27,13,27,29.9C414.2,147.3,407,157.5,387.5,157.5z
			 M388.9,106.4c-7.6,0-13,0.8-13,0.8v40.2h13c7.7,0,13.1-5.1,13.1-20.1C401.9,113.6,398.6,106.4,388.9,106.4z"/>
		<path d="M458.9,194.9c-22.7,0-28.8-16.5-28.8-50.3c0-32.4,6.1-48.1,28.8-48.1c22.7,0,28.8,15.7,28.8,48.1
			C487.7,178.3,481.6,194.9,458.9,194.9z M458.9,106.5c-12.4,0-16.5,8.4-16.5,38.7c0,29.6,4.1,39.5,16.5,39.5
			c12.4,0,16.5-9.9,16.5-39.5C475.4,115,471.3,106.5,458.9,106.5z"/>
		<path d="M524.7,194.9c-6.7,0-16.8-2.1-18.1-2.3v-10.3c3.3,0.7,11.9,2.2,17.9,2.2c7,0,11.6-5.8,11.6-16.4
			c0-12.8-2.1-19.2-11.9-19.2H513v-10.1h9.9c11.2,0,11.7-11.4,11.7-16.9c0-10.9-3.4-15.3-10.3-15.3c-6.1,0-13,1.5-17,2.3V98.8
			c1.5-0.3,9.6-2.3,16.7-2.3c14.2,0,22.3,6.1,22.3,26.6c0,9.4-2.9,17.6-10.5,20c9,1.2,12.1,10.1,12.1,23.6
			C548,187.2,540,194.9,524.7,194.9z"/>
	</g>
</g>
</svg>
