<?xml version="1.0" encoding="utf-8"?>
<!-- Generator: Adobe Illustrator 19.2.1, SVG Export Plug-In . SVG Version: 6.00 Build 0)  -->
<svg version="1.1" id="Ebene_1" xmlns="http://www.w3.org/2000/svg" xmlns:xlink="http://www.w3.org/1999/xlink" x="0px" y="0px"
	 viewBox="0 0 163.7 136.4" style="enable-background:new 0 0 163.7 136.4;" xml:space="preserve">
<style type="text/css">
	.st0{fill:#FF8700;}
</style>
<g>
	<path class="st0" d="M163.7,20.5c0,3.7-3.1,6.8-6.8,6.8H6.8c-3.7,0-6.8-3.1-6.8-6.8V6.8C0,3.1,3.1,0,6.8,0h150.1
		c3.7,0,6.8,3.1,6.8,6.8V20.5z M163.7,75c0,3.7-3.1,6.8-6.8,6.8H6.8C3.1,81.9,0,78.8,0,75V61.4c0-3.7,3.1-6.8,6.8-6.8h150.1
		c3.7,0,6.8,3.1,6.8,6.8V75z M163.7,129.6c0,3.7-3.1,6.8-6.8,6.8H6.8c-3.7,0-6.8-3.1-6.8-6.8V116c0-3.7,3.1-6.8,6.8-6.8h150.1
		c3.7,0,6.8,3.1,6.8,6.8V129.6z"/>
</g>
</svg>
