<?xml version="1.0" encoding="utf-8"?>
<!-- Generator: Adobe Illustrator 19.2.1, SVG Export Plug-In . SVG Version: 6.00 Build 0)  -->
<svg version="1.1" id="Ebene_1" xmlns="http://www.w3.org/2000/svg" xmlns:xlink="http://www.w3.org/1999/xlink" x="0px" y="0px"
	 width="9.3px" height="9.3px" viewBox="0 0 9.3 9.3" style="enable-background:new 0 0 9.3 9.3;" xml:space="preserve">
<style type="text/css">
	.st0{fill:#FF8700;}
</style>
<path class="st0" d="M9.1,8L8,9.1C7.9,9.2,7.7,9.3,7.5,9.3S7.1,9.2,6.9,9.1L4.6,6.8L2.3,9.1C2.2,9.2,2,9.3,1.8,9.3S1.4,9.2,1.3,9.1
	L0.2,8C0.1,7.9,0,7.7,0,7.5S0.1,7.1,0.2,7l2.3-2.3L0.2,2.3C0.1,2.2,0,2,0,1.8s0.1-0.4,0.2-0.5l1.1-1.1C1.4,0.1,1.6,0,1.8,0
	s0.4,0.1,0.5,0.2l2.3,2.3l2.3-2.3C7.1,0.1,7.3,0,7.5,0S7.9,0.1,8,0.2l1.1,1.1c0.1,0.1,0.2,0.3,0.2,0.5S9.2,2.2,9.1,2.3L6.8,4.6
	l2.3,2.3C9.2,7,9.3,7.2,9.3,7.4S9.2,7.9,9.1,8z"/>
</svg>
