<?xml version="1.0" encoding="utf-8"?>
<!-- Generator: Adobe Illustrator 19.2.1, SVG Export Plug-In . SVG Version: 6.00 Build 0)  -->
<svg version="1.1" id="Ebene_1" xmlns="http://www.w3.org/2000/svg" xmlns:xlink="http://www.w3.org/1999/xlink" x="0px" y="0px"
	 viewBox="0 0 21 21" enable-background="new 0 0 21 21" xml:space="preserve">
<path fill="#FF8700" d="M18.3,4.8L4.8,18.3c-0.4,0.4-1,0.4-1.4,0l-0.7-0.7c-0.4-0.4-0.4-1,0-1.4L16.2,2.7c0.4-0.4,1-0.4,1.4,0
	l0.7,0.7C18.7,3.8,18.7,4.5,18.3,4.8z"/>
<path fill="#FF8700" d="M16.2,18.3L2.7,4.8c-0.4-0.4-0.4-1,0-1.4l0.7-0.7c0.4-0.4,1-0.4,1.4,0l13.4,13.4c0.4,0.4,0.4,1,0,1.4
	l-0.7,0.7C17.2,18.7,16.5,18.7,16.2,18.3z"/>
</svg>
