<?xml version="1.0" encoding="utf-8"?>
<!-- Generator: Adobe Illustrator 19.2.1, SVG Export Plug-In . SVG Version: 6.00 Build 0)  -->
<svg version="1.1" id="Ebene_1" xmlns="http://www.w3.org/2000/svg" xmlns:xlink="http://www.w3.org/1999/xlink" x="0px" y="0px"
	 viewBox="0 0 21 21" enable-background="new 0 0 21 21" xml:space="preserve">
<path fill="#FF8700" d="M20,6H1C0.4,6,0,5.6,0,5V4c0-0.6,0.4-1,1-1h19c0.6,0,1,0.4,1,1v1C21,5.6,20.6,6,20,6z"/>
<path fill="#FF8700" d="M20,18H1c-0.6,0-1-0.4-1-1v-1c0-0.6,0.4-1,1-1h19c0.6,0,1,0.4,1,1v1C21,17.6,20.6,18,20,18z"/>
<path fill="#FF8700" d="M20,12H1c-0.6,0-1-0.4-1-1v-1c0-0.6,0.4-1,1-1h19c0.6,0,1,0.4,1,1v1C21,11.6,20.6,12,20,12z"/>
</svg>
