<?xml version="1.0" encoding="utf-8"?>
<!-- Generator: Adobe Illustrator 19.2.1, SVG Export Plug-In . SVG Version: 6.00 Build 0)  -->
<svg version="1.1" id="Ebene_1" xmlns="http://www.w3.org/2000/svg" xmlns:xlink="http://www.w3.org/1999/xlink" x="0px" y="0px"
	 viewBox="0 0 28 28" enable-background="new 0 0 28 28" xml:space="preserve">
<path fill="#FF8700" d="M24.6,6.9L6.9,24.6c-0.6,0.6-1.5,0.6-2.1,0l-1.4-1.4c-0.6-0.6-0.6-1.5,0-2.1L21.1,3.4c0.6-0.6,1.5-0.6,2.1,0
	l1.4,1.4C25.2,5.4,25.2,6.3,24.6,6.9z"/>
<path fill="#FF8700" d="M21.1,24.6L3.4,6.9c-0.6-0.6-0.6-1.5,0-2.1l1.4-1.4c0.6-0.6,1.5-0.6,2.1,0l17.7,17.7c0.6,0.6,0.6,1.5,0,2.1
	l-1.4,1.4C22.6,25.2,21.7,25.2,21.1,24.6z"/>
</svg>
