<?xml version="1.0" encoding="utf-8"?>
<!-- Generator: Adobe Illustrator 19.2.1, SVG Export Plug-In . SVG Version: 6.00 Build 0)  -->
<svg version="1.1" id="Ebene_1" xmlns="http://www.w3.org/2000/svg" xmlns:xlink="http://www.w3.org/1999/xlink" x="0px" y="0px"
	 viewBox="0 0 28 28" enable-background="new 0 0 28 28" xml:space="preserve">
<path fill="#FF8700" d="M26.5,16h-25C0.7,16,0,15.3,0,14.5v-1C0,12.7,0.7,12,1.5,12h25c0.8,0,1.5,0.7,1.5,1.5v1
	C28,15.3,27.3,16,26.5,16z"/>
<path fill="#FF8700" d="M26.5,8h-25C0.7,8,0,7.3,0,6.5v-1C0,4.7,0.7,4,1.5,4h25C27.3,4,28,4.7,28,5.5v1C28,7.3,27.3,8,26.5,8z"/>
<path fill="#FF8700" d="M26.5,24h-25C0.7,24,0,23.3,0,22.5v-1C0,20.7,0.7,20,1.5,20h25c0.8,0,1.5,0.7,1.5,1.5v1
	C28,23.3,27.3,24,26.5,24z"/>
</svg>
