<?xml version="1.0" encoding="utf-8"?>
<!-- Generator: Adobe Illustrator 19.2.1, SVG Export Plug-In . SVG Version: 6.00 Build 0)  -->
<svg version="1.1" id="Ebene_1" xmlns="http://www.w3.org/2000/svg" xmlns:xlink="http://www.w3.org/1999/xlink" x="0px" y="0px"
	 width="49.2px" height="37.7px" viewBox="0 0 49.2 37.7" style="enable-background:new 0 0 49.2 37.7;" xml:space="preserve">
<style type="text/css">
	.st0{fill:#1D1D1B;}
</style>
<path class="st0" d="M48.3,9.5l-23,23L21,36.8c-0.6,0.6-1.4,0.9-2.2,0.9s-1.6-0.3-2.2-0.9l-4.3-4.3L0.9,21C0.3,20.4,0,19.6,0,18.9
	s0.3-1.6,0.9-2.2l4.3-4.3c0.6-0.6,1.4-0.9,2.2-0.9s1.6,0.3,2.2,0.9l9.3,9.4L39.7,0.9C40.2,0.3,41,0,41.8,0s1.6,0.3,2.2,0.9l4.3,4.3
	c0.6,0.6,0.9,1.4,0.9,2.2S48.9,9,48.3,9.5z"/>
</svg>
