<?xml version="1.0" encoding="utf-8"?>
<!-- Generator: Adobe Illustrator 19.2.1, SVG Export Plug-In . SVG Version: 6.00 Build 0)  -->
<svg version="1.1" id="Capa_1" xmlns="http://www.w3.org/2000/svg" xmlns:xlink="http://www.w3.org/1999/xlink" x="0px" y="0px"
	 width="135.6px" height="135.6px" viewBox="0 0 135.6 135.6" style="enable-background:new 0 0 135.6 135.6;" xml:space="preserve"
	>
<style type="text/css">
	.st0{fill:#FF8600;}
</style>
<path class="st0" d="M132.6,117.8l-27.9-27.9c6.7-9.7,10.1-20.6,10.1-32.5c0-7.8-1.5-15.2-4.5-22.3c-3-7.1-7.1-13.2-12.2-18.3
	S86.7,7.5,79.6,4.5C72.6,1.5,65.1,0,57.4,0S42.2,1.5,35.1,4.5c-7.1,3-13.2,7.1-18.3,12.2S7.5,28,4.5,35.1C1.5,42.2,0,49.6,0,57.4
	s1.5,15.2,4.5,22.3c3,7.1,7.1,13.2,12.2,18.3c5.1,5.1,11.2,9.2,18.3,12.2c7.1,3,14.5,4.5,22.3,4.5c12,0,22.8-3.4,32.5-10.1
	l27.9,27.9c2,2.1,4.4,3.1,7.3,3.1c2.8,0,5.3-1,7.3-3.1c2.1-2.1,3.1-4.5,3.1-7.3C135.6,122.3,134.6,119.8,132.6,117.8z M83.1,83.1
	C76,90.3,67.4,93.9,57.4,93.9c-10,0-18.6-3.6-25.8-10.7C24.4,76,20.9,67.4,20.9,57.4c0-10,3.6-18.6,10.7-25.8
	c7.1-7.1,15.7-10.7,25.8-10.7S76,24.4,83.1,31.6c7.1,7.1,10.7,15.7,10.7,25.8C93.9,67.4,90.3,76,83.1,83.1z"/>
</svg>
