<?xml version="1.0" encoding="utf-8"?>
<!-- Generator: Adobe Illustrator 19.2.1, SVG Export Plug-In . SVG Version: 6.00 Build 0)  -->
<svg version="1.1" id="Ebene_1" xmlns="http://www.w3.org/2000/svg" xmlns:xlink="http://www.w3.org/1999/xlink" x="0px" y="0px"
	 width="47.7px" height="44.5px" viewBox="0 0 47.7 44.5" style="enable-background:new 0 0 47.7 44.5;" xml:space="preserve">
<style type="text/css">
	.st0{fill:#F18518;}
</style>
<path class="st0" d="M8.1,25.4H4.8c-2.5,0-4.8-1.2-4.8-3.9c0-2-0.1-8.8,3.1-8.8c0.5,0,3.1,2.1,6.5,2.1c1.1,0,2.2-0.2,3.3-0.6
	c-0.1,0.5-0.1,1.1-0.1,1.6c0,2.3,0.7,4.5,2,6.4C12.1,22.3,9.8,23.4,8.1,25.4z"/>
<path class="st0" d="M9.5,12.7c-3.5,0-6.4-2.9-6.4-6.4S6,0,9.5,0s6.4,2.9,6.4,6.4S13,12.7,9.5,12.7z"/>
<path class="st0" d="M34.7,44.5H13c-4,0-6.6-2.4-6.6-6.4c0-5.6,1.3-14.2,8.6-14.2c0.8,0,3.9,3.5,8.9,3.5s8-3.5,8.9-3.5
	c7.3,0,8.6,8.6,8.6,14.2C41.3,42.1,38.7,44.5,34.7,44.5z"/>
<circle class="st0" cx="23.8" cy="15.9" r="9.5"/>
<path class="st0" d="M38.1,12.7c-3.5,0-6.4-2.9-6.4-6.4S34.6,0,38.1,0s6.4,2.9,6.4,6.4S41.6,12.7,38.1,12.7z"/>
<path class="st0" d="M42.8,25.4h-3.3c-1.7-2-4-3.1-6.6-3.2c1.3-1.9,2-4.1,2-6.4c0-0.5,0-1.1-0.1-1.6c1.1,0.4,2.2,0.6,3.3,0.6
	c3.4,0,5.9-2.1,6.5-2.1c3.2,0,3.1,6.8,3.1,8.8C47.7,24.2,45.3,25.4,42.8,25.4z"/>
</svg>
