<?xml version="1.0" encoding="utf-8"?>
<!-- Generator: Adobe Illustrator 19.2.1, SVG Export Plug-In . SVG Version: 6.00 Build 0)  -->
<svg version="1.1" id="Ebene_1" xmlns="http://www.w3.org/2000/svg" xmlns:xlink="http://www.w3.org/1999/xlink" x="0px" y="0px"
	 width="47.2px" height="43.5px" viewBox="0 0 47.2 43.5" style="enable-background:new 0 0 47.2 43.5;" xml:space="preserve">
<style type="text/css">
	.st0{fill:#F18518;}
	.st1{fill:none;stroke:#000000;stroke-width:2;stroke-miterlimit:10;}
	.st2{fill:none;stroke:#000000;stroke-width:2;stroke-linecap:round;stroke-miterlimit:10;}
</style>
<path class="st0" d="M37.6,17.6L24.9,30.3c-0.3,0.4-0.8,0.5-1.3,0.5s-0.9-0.2-1.3-0.5L9.6,17.6c-0.5-0.5-0.7-1.3-0.4-2
	c0.3-0.7,0.9-1.1,1.7-1.1h7.3V1.8C18.1,0.8,19,0,20,0h7.3c1,0,1.8,0.8,1.8,1.8v12.7h7.3c0.7,0,1.4,0.5,1.7,1.1
	C38.2,16.3,38.1,17.1,37.6,17.6z"/>
<path class="st0" d="M44.4,29H31.3l-3.9,3.9c-1,1-2.4,1.6-3.9,1.6s-2.8-0.6-3.9-1.6L15.9,29H2.7C1.2,29,0,30.2,0,31.7v9.1
	c0,1.5,1.2,2.7,2.7,2.7h41.7c1.5,0,2.7-1.2,2.7-2.7v-9.1C47.2,30.2,45.9,29,44.4,29z M34.5,39.9c-1,0-1.8-0.8-1.8-1.8
	c0-1,0.8-1.8,1.8-1.8c1,0,1.8,0.8,1.8,1.8C36.3,39.1,35.5,39.9,34.5,39.9z M41.7,39.9c-1,0-1.8-0.8-1.8-1.8c0-1,0.8-1.8,1.8-1.8
	s1.8,0.8,1.8,1.8C43.5,39.1,42.7,39.9,41.7,39.9z"/>
<path d="M-69.9,81.2c0,0.1-0.1,0.2-0.2,0.2h-13.5c-0.1,0-0.2-0.1-0.2-0.2v-1.5c0-0.1,0.1-0.2,0.2-0.2h13.5c0.1,0,0.2,0.1,0.2,0.2
	V81.2z"/>
<path d="M-81.2,85.1l-2.2,2.2c0,0-0.1,0.1-0.2,0.1c-0.1,0-0.2-0.1-0.2-0.2v-4.5c0-0.1,0.1-0.2,0.2-0.2c0.1,0,0.1,0,0.2,0.1l2.2,2.2
	c0,0,0.1,0.1,0.1,0.2S-81.2,85.1-81.2,85.1z"/>
<path d="M-69.9,90.2c0,0.1-0.1,0.2-0.2,0.2h-13.5c-0.1,0-0.2-0.1-0.2-0.2v-1.5c0-0.1,0.1-0.2,0.2-0.2h13.5c0.1,0,0.2,0.1,0.2,0.2
	V90.2z"/>
<path d="M-69.9,84.2c0,0.1-0.1,0.2-0.2,0.2h-8.5c-0.1,0-0.2-0.1-0.2-0.2v-1.5c0-0.1,0.1-0.2,0.2-0.2h8.5c0.1,0,0.2,0.1,0.2,0.2V84.2
	z"/>
<path d="M-69.9,87.2c0,0.1-0.1,0.2-0.2,0.2h-8.5c-0.1,0-0.2-0.1-0.2-0.2v-1.5c0-0.1,0.1-0.2,0.2-0.2h8.5c0.1,0,0.2,0.1,0.2,0.2V87.2
	z"/>
<path d="M-44.7,81.2c0,0.1-0.1,0.2-0.2,0.2h-13.5c-0.1,0-0.2-0.1-0.2-0.2v-1.5c0-0.1,0.1-0.2,0.2-0.2h13.5c0.1,0,0.2,0.1,0.2,0.2
	V81.2z"/>
<path d="M-44.7,90.2c0,0.1-0.1,0.2-0.2,0.2h-13.5c-0.1,0-0.2-0.1-0.2-0.2v-1.5c0-0.1,0.1-0.2,0.2-0.2h13.5c0.1,0,0.2,0.1,0.2,0.2
	V90.2z"/>
<path d="M-55.7,87.2c0,0.1-0.1,0.2-0.2,0.2c-0.1,0-0.1,0-0.2-0.1l-2.2-2.2c0,0-0.1-0.1-0.1-0.2s0-0.1,0.1-0.2l2.2-2.2
	c0,0,0.1-0.1,0.2-0.1c0.1,0,0.2,0.1,0.2,0.2V87.2z"/>
<path d="M-44.7,84.2c0,0.1-0.1,0.2-0.2,0.2h-8.5c-0.1,0-0.2-0.1-0.2-0.2v-1.5c0-0.1,0.1-0.2,0.2-0.2h8.5c0.1,0,0.2,0.1,0.2,0.2V84.2
	z"/>
<path d="M-44.7,87.2c0,0.1-0.1,0.2-0.2,0.2h-8.5c-0.1,0-0.2-0.1-0.2-0.2v-1.5c0-0.1,0.1-0.2,0.2-0.2h8.5c0.1,0,0.2,0.1,0.2,0.2V87.2
	z"/>
<path d="M-31.5,81.2c0,0.1-0.1,0.2-0.2,0.2h-1.5c-0.1,0-0.2-0.1-0.2-0.2v-1.5c0-0.1,0.1-0.2,0.2-0.2h1.5c0.1,0,0.2,0.1,0.2,0.2V81.2
	z"/>
<path d="M-31.5,84.2c0,0.1-0.1,0.2-0.2,0.2h-1.5c-0.1,0-0.2-0.1-0.2-0.2v-1.5c0-0.1,0.1-0.2,0.2-0.2h1.5c0.1,0,0.2,0.1,0.2,0.2V84.2
	z"/>
<path d="M-31.5,87.2c0,0.1-0.1,0.2-0.2,0.2h-1.5c-0.1,0-0.2-0.1-0.2-0.2v-1.5c0-0.1,0.1-0.2,0.2-0.2h1.5c0.1,0,0.2,0.1,0.2,0.2V87.2
	z"/>
<path d="M-31.5,90.2c0,0.1-0.1,0.2-0.2,0.2h-1.5c-0.1,0-0.2-0.1-0.2-0.2v-1.5c0-0.1,0.1-0.2,0.2-0.2h1.5c0.1,0,0.2,0.1,0.2,0.2V90.2
	z"/>
<path d="M-19.5,81.2c0,0.1-0.1,0.2-0.2,0.2h-10.5c-0.1,0-0.2-0.1-0.2-0.2v-1.5c0-0.1,0.1-0.2,0.2-0.2h10.5c0.1,0,0.2,0.1,0.2,0.2
	V81.2z"/>
<path d="M-19.5,84.2c0,0.1-0.1,0.2-0.2,0.2h-10.5c-0.1,0-0.2-0.1-0.2-0.2v-1.5c0-0.1,0.1-0.2,0.2-0.2h10.5c0.1,0,0.2,0.1,0.2,0.2
	V84.2z"/>
<path d="M-19.5,87.2c0,0.1-0.1,0.2-0.2,0.2h-10.5c-0.1,0-0.2-0.1-0.2-0.2v-1.5c0-0.1,0.1-0.2,0.2-0.2h10.5c0.1,0,0.2,0.1,0.2,0.2
	V87.2z"/>
<path d="M-19.5,90.2c0,0.1-0.1,0.2-0.2,0.2h-10.5c-0.1,0-0.2-0.1-0.2-0.2v-1.5c0-0.1,0.1-0.2,0.2-0.2h10.5c0.1,0,0.2,0.1,0.2,0.2
	V90.2z"/>
<path d="M5.7,80.9c0,0.3-0.2,0.5-0.5,0.5h-13c-0.3,0-0.5-0.2-0.5-0.5v-1c0-0.3,0.2-0.5,0.5-0.5h13c0.3,0,0.5,0.2,0.5,0.5V80.9z"/>
<path d="M5.7,83.9c0,0.3-0.2,0.5-0.5,0.5h-13c-0.3,0-0.5-0.2-0.5-0.5v-1c0-0.3,0.2-0.5,0.5-0.5h13c0.3,0,0.5,0.2,0.5,0.5V83.9z"/>
<path d="M5.7,86.9c0,0.3-0.2,0.5-0.5,0.5h-13c-0.3,0-0.5-0.2-0.5-0.5v-1c0-0.3,0.2-0.5,0.5-0.5h13c0.3,0,0.5,0.2,0.5,0.5V86.9z"/>
<path d="M5.7,89.9c0,0.3-0.2,0.5-0.5,0.5h-13c-0.3,0-0.5-0.2-0.5-0.5v-1c0-0.3,0.2-0.5,0.5-0.5h13c0.3,0,0.5,0.2,0.5,0.5V89.9z"/>
<path d="M30.9,89.9c0,0.3-0.2,0.5-0.5,0.5h-13c-0.3,0-0.5-0.2-0.5-0.5v-1c0-0.3,0.2-0.5,0.5-0.5h13c0.3,0,0.5,0.2,0.5,0.5V89.9z"/>
<path d="M30.9,83.9c0,0.3-0.2,0.5-0.5,0.5h-12c-0.3,0-0.5-0.2-0.5-0.5v-1c0-0.3,0.2-0.5,0.5-0.5h12c0.3,0,0.5,0.2,0.5,0.5V83.9z"/>
<path d="M30.9,86.9c0,0.3-0.2,0.5-0.5,0.5h-10c-0.3,0-0.5-0.2-0.5-0.5v-1c0-0.3,0.2-0.5,0.5-0.5h10c0.3,0,0.5,0.2,0.5,0.5V86.9z"/>
<path d="M30.9,80.9c0,0.3-0.2,0.5-0.5,0.5h-9c-0.3,0-0.5-0.2-0.5-0.5v-1c0-0.3,0.2-0.5,0.5-0.5h9c0.3,0,0.5,0.2,0.5,0.5V80.9z"/>
<path d="M56.1,89.9c0,0.3-0.2,0.5-0.5,0.5h-13c-0.3,0-0.5-0.2-0.5-0.5v-1c0-0.3,0.2-0.5,0.5-0.5h13c0.3,0,0.5,0.2,0.5,0.5V89.9z"/>
<path d="M55.1,83.9c0,0.3-0.2,0.5-0.5,0.5h-11c-0.3,0-0.5-0.2-0.5-0.5v-1c0-0.3,0.2-0.5,0.5-0.5h11c0.3,0,0.5,0.2,0.5,0.5V83.9z"/>
<path d="M53.1,86.9c0,0.3-0.2,0.5-0.5,0.5h-7c-0.3,0-0.5-0.2-0.5-0.5v-1c0-0.3,0.2-0.5,0.5-0.5h7c0.3,0,0.5,0.2,0.5,0.5V86.9z"/>
<path d="M52.1,80.9c0,0.3-0.2,0.5-0.5,0.5h-5c-0.3,0-0.5-0.2-0.5-0.5v-1c0-0.3,0.2-0.5,0.5-0.5h5c0.3,0,0.5,0.2,0.5,0.5V80.9z"/>
<path d="M77.3,80.9c0,0.3-0.2,0.5-0.5,0.5h-9c-0.3,0-0.5-0.2-0.5-0.5v-1c0-0.3,0.2-0.5,0.5-0.5h9c0.3,0,0.5,0.2,0.5,0.5V80.9z"/>
<path d="M80.3,83.9c0,0.3-0.2,0.5-0.5,0.5h-12c-0.3,0-0.5-0.2-0.5-0.5v-1c0-0.3,0.2-0.5,0.5-0.5h12c0.3,0,0.5,0.2,0.5,0.5V83.9z"/>
<path d="M78.3,86.9c0,0.3-0.2,0.5-0.5,0.5h-10c-0.3,0-0.5-0.2-0.5-0.5v-1c0-0.3,0.2-0.5,0.5-0.5h10c0.3,0,0.5,0.2,0.5,0.5V86.9z"/>
<path d="M81.3,89.9c0,0.3-0.2,0.5-0.5,0.5h-13c-0.3,0-0.5-0.2-0.5-0.5v-1c0-0.3,0.2-0.5,0.5-0.5h13c0.3,0,0.5,0.2,0.5,0.5V89.9z"/>
<path d="M95.5,87.4h-2.8c0-0.1,0-0.3,0-0.4c0-1.4,1.8-1.7,1.8-2.3c0-0.3-0.2-0.4-0.4-0.4c-0.3,0-0.5,0.2-0.6,0.5l-0.7-0.5
	c0.3-0.5,0.8-0.8,1.4-0.8c0.7,0,1.4,0.4,1.4,1.2c0,1.2-1.7,1.4-1.7,2h1v-0.5h0.8V87.4z"/>
<path d="M94,92.4c-0.5,0-1-0.2-1.3-0.5l0.4-0.7c0.2,0.2,0.5,0.4,0.8,0.4c0.3,0,0.6-0.1,0.6-0.4c0-0.4-0.5-0.5-0.8-0.4l-0.2-0.4
	c0.3-0.4,0.5-0.8,0.9-1.1v0c-0.2,0-0.5,0-0.8,0v0.4h-0.8v-1.2h2.6v0.7L94.6,90c0.5,0.1,0.9,0.5,0.9,1.1C95.5,92,94.8,92.4,94,92.4z"
	/>
<path d="M95.5,82.4h-2.6v-0.8h0.8c0-0.6,0-1.3,0-1.9v-0.1h0c-0.1,0.2-0.2,0.3-0.4,0.4l-0.6-0.6l1.1-1h0.8v3.2h0.8V82.4z"/>
<path d="M106.5,82.2c0,0.1-0.1,0.2-0.2,0.2h-9.5c-0.1,0-0.2-0.1-0.2-0.2v-1.5c0-0.1,0.1-0.2,0.2-0.2h9.5c0.1,0,0.2,0.1,0.2,0.2V82.2
	z"/>
<path d="M106.5,86.2c0,0.1-0.1,0.2-0.2,0.2h-9.5c-0.1,0-0.2-0.1-0.2-0.2v-1.5c0-0.1,0.1-0.2,0.2-0.2h9.5c0.1,0,0.2,0.1,0.2,0.2V86.2
	z"/>
<path d="M106.5,90.2c0,0.1-0.1,0.2-0.2,0.2h-9.5c-0.1,0-0.2-0.1-0.2-0.2v-1.5c0-0.1,0.1-0.2,0.2-0.2h9.5c0.1,0,0.2,0.1,0.2,0.2V90.2
	z"/>
<circle cx="119.2" cy="81.4" r="1.5"/>
<circle cx="119.2" cy="85.4" r="1.5"/>
<circle cx="119.2" cy="89.4" r="1.5"/>
<path d="M131.7,82.2c0,0.1-0.1,0.2-0.2,0.2H122c-0.1,0-0.2-0.1-0.2-0.2v-1.5c0-0.1,0.1-0.2,0.2-0.2h9.5c0.1,0,0.2,0.1,0.2,0.2V82.2z
	"/>
<path d="M131.7,86.2c0,0.1-0.1,0.2-0.2,0.2H122c-0.1,0-0.2-0.1-0.2-0.2v-1.5c0-0.1,0.1-0.2,0.2-0.2h9.5c0.1,0,0.2,0.1,0.2,0.2V86.2z
	"/>
<path d="M131.7,90.2c0,0.1-0.1,0.2-0.2,0.2H122c-0.1,0-0.2-0.1-0.2-0.2v-1.5c0-0.1,0.1-0.2,0.2-0.2h9.5c0.1,0,0.2,0.1,0.2,0.2V90.2z
	"/>
<path d="M154.9,81.9c0,0.3-0.2,0.5-0.5,0.5h-11c-0.3,0-0.5-0.2-0.5-0.5v-1c0-0.3,0.2-0.5,0.5-0.5h11c0.3,0,0.5,0.2,0.5,0.5V81.9z"/>
<path d="M154.9,85.9c0,0.3-0.2,0.5-0.5,0.5h-11c-0.3,0-0.5-0.2-0.5-0.5v-1c0-0.3,0.2-0.5,0.5-0.5h11c0.3,0,0.5,0.2,0.5,0.5V85.9z"/>
<path d="M154.9,89.9c0,0.3-0.2,0.5-0.5,0.5h-11c-0.3,0-0.5-0.2-0.5-0.5v-1c0-0.3,0.2-0.5,0.5-0.5h11c0.3,0,0.5,0.2,0.5,0.5V89.9z"/>
<path d="M172.1,83.4c0,0.5-0.5,1-1,1h-4c-0.5,0-1-0.5-1-1v-3c0-0.5,0.5-1,1-1h4c0.5,0,1,0.5,1,1V83.4z"/>
<path d="M172.1,89.4c0,0.5-0.5,1-1,1h-4c-0.5,0-1-0.5-1-1v-3c0-0.5,0.5-1,1-1h4c0.5,0,1,0.5,1,1V89.4z"/>
<path d="M179.1,83.4c0,0.5-0.5,1-1,1h-4c-0.5,0-1-0.5-1-1v-3c0-0.5,0.5-1,1-1h4c0.5,0,1,0.5,1,1V83.4z"/>
<path d="M179.1,89.4c0,0.5-0.5,1-1,1h-4c-0.5,0-1-0.5-1-1v-3c0-0.5,0.5-1,1-1h4c0.5,0,1,0.5,1,1V89.4z"/>
<path d="M194.3,81.7c0,0.4-0.3,0.8-0.8,0.8H191c-0.4,0-0.8-0.3-0.8-0.8v-1.5c0-0.4,0.3-0.8,0.8-0.8h2.5c0.4,0,0.8,0.3,0.8,0.8V81.7z
	"/>
<path d="M194.3,85.7c0,0.4-0.3,0.8-0.8,0.8H191c-0.4,0-0.8-0.3-0.8-0.8v-1.5c0-0.4,0.3-0.8,0.8-0.8h2.5c0.4,0,0.8,0.3,0.8,0.8V85.7z
	"/>
<path d="M194.3,89.7c0,0.4-0.3,0.8-0.8,0.8H191c-0.4,0-0.8-0.3-0.8-0.8v-1.5c0-0.4,0.3-0.8,0.8-0.8h2.5c0.4,0,0.8,0.3,0.8,0.8V89.7z
	"/>
<path d="M199.3,81.7c0,0.4-0.3,0.8-0.8,0.8H196c-0.4,0-0.8-0.3-0.8-0.8v-1.5c0-0.4,0.3-0.8,0.8-0.8h2.5c0.4,0,0.8,0.3,0.8,0.8V81.7z
	"/>
<path d="M199.3,85.7c0,0.4-0.3,0.8-0.8,0.8H196c-0.4,0-0.8-0.3-0.8-0.8v-1.5c0-0.4,0.3-0.8,0.8-0.8h2.5c0.4,0,0.8,0.3,0.8,0.8V85.7z
	"/>
<path d="M199.3,89.7c0,0.4-0.3,0.8-0.8,0.8H196c-0.4,0-0.8-0.3-0.8-0.8v-1.5c0-0.4,0.3-0.8,0.8-0.8h2.5c0.4,0,0.8,0.3,0.8,0.8V89.7z
	"/>
<path d="M204.3,81.7c0,0.4-0.3,0.8-0.8,0.8H201c-0.4,0-0.8-0.3-0.8-0.8v-1.5c0-0.4,0.3-0.8,0.8-0.8h2.5c0.4,0,0.8,0.3,0.8,0.8V81.7z
	"/>
<path d="M204.3,85.7c0,0.4-0.3,0.8-0.8,0.8H201c-0.4,0-0.8-0.3-0.8-0.8v-1.5c0-0.4,0.3-0.8,0.8-0.8h2.5c0.4,0,0.8,0.3,0.8,0.8V85.7z
	"/>
<path d="M204.3,89.7c0,0.4-0.3,0.8-0.8,0.8H201c-0.4,0-0.8-0.3-0.8-0.8v-1.5c0-0.4,0.3-0.8,0.8-0.8h2.5c0.4,0,0.8,0.3,0.8,0.8V89.7z
	"/>
<path d="M219.5,81.7c0,0.4-0.3,0.8-0.8,0.8h-2.5c-0.4,0-0.8-0.3-0.8-0.8v-1.5c0-0.4,0.3-0.8,0.8-0.8h2.5c0.4,0,0.8,0.3,0.8,0.8V81.7
	z"/>
<path d="M219.5,85.7c0,0.4-0.3,0.8-0.8,0.8h-2.5c-0.4,0-0.8-0.3-0.8-0.8v-1.5c0-0.4,0.3-0.8,0.8-0.8h2.5c0.4,0,0.8,0.3,0.8,0.8V85.7
	z"/>
<path d="M219.5,89.7c0,0.4-0.3,0.8-0.8,0.8h-2.5c-0.4,0-0.8-0.3-0.8-0.8v-1.5c0-0.4,0.3-0.8,0.8-0.8h2.5c0.4,0,0.8,0.3,0.8,0.8V89.7
	z"/>
<path d="M229.5,81.7c0,0.4-0.3,0.8-0.8,0.8h-7.5c-0.4,0-0.8-0.3-0.8-0.8v-1.5c0-0.4,0.3-0.8,0.8-0.8h7.5c0.4,0,0.8,0.3,0.8,0.8V81.7
	z"/>
<path d="M229.5,85.7c0,0.4-0.3,0.8-0.8,0.8h-7.5c-0.4,0-0.8-0.3-0.8-0.8v-1.5c0-0.4,0.3-0.8,0.8-0.8h7.5c0.4,0,0.8,0.3,0.8,0.8V85.7
	z"/>
<path d="M229.5,89.7c0,0.4-0.3,0.8-0.8,0.8h-7.5c-0.4,0-0.8-0.3-0.8-0.8v-1.5c0-0.4,0.3-0.8,0.8-0.8h7.5c0.4,0,0.8,0.3,0.8,0.8V89.7
	z"/>
<path d="M240.7,79.4v3h14v-3H240.7z M249.7,81.4h-8v-1h8V81.4z M253.2,81.7c-0.4,0-0.8-0.3-0.8-0.8s0.3-0.8,0.8-0.8s0.8,0.3,0.8,0.8
	S253.6,81.7,253.2,81.7z"/>
<path d="M240.7,83.4v3h14v-3H240.7z M249.7,85.4h-8v-1h8V85.4z M253.2,85.7c-0.4,0-0.8-0.3-0.8-0.8s0.3-0.8,0.8-0.8s0.8,0.3,0.8,0.8
	S253.6,85.7,253.2,85.7z"/>
<path d="M240.7,87.4v3h14v-3H240.7z M249.7,89.4h-8v-1h8V89.4z M253.2,89.7c-0.4,0-0.8-0.3-0.8-0.8s0.3-0.8,0.8-0.8s0.8,0.3,0.8,0.8
	S253.6,89.7,253.2,89.7z"/>
<path d="M279.4,83.4h-13c-0.3,0-0.5,0.2-0.5,0.5v2c0,0.3,0.2,0.5,0.5,0.5h13c0.3,0,0.5-0.2,0.5-0.5v-2
	C279.9,83.7,279.7,83.4,279.4,83.4z M278.9,85.4h-8v-1h8V85.4z"/>
<path d="M279.4,87.4h-13c-0.3,0-0.5,0.2-0.5,0.5v2c0,0.3,0.2,0.5,0.5,0.5h13c0.3,0,0.5-0.2,0.5-0.5v-2
	C279.9,87.7,279.7,87.4,279.4,87.4z M278.9,89.4h-5v-1h5V89.4z"/>
<path d="M279.4,79.4h-13c-0.3,0-0.5,0.2-0.5,0.5v2c0,0.3,0.2,0.5,0.5,0.5h13c0.3,0,0.5-0.2,0.5-0.5v-2
	C279.9,79.7,279.7,79.4,279.4,79.4z M278.9,81.4h-3v-1h3V81.4z"/>
<path d="M305.1,89.2c0,0.7-0.6,1.2-1.2,1.2h-11.5c-0.7,0-1.2-0.6-1.2-1.2v-8.5c0-0.7,0.6-1.2,1.2-1.2h11.5c0.7,0,1.2,0.6,1.2,1.2
	V89.2z"/>
<path d="M304.1,82.7c0-0.1-0.1-0.2-0.2-0.2h-11.5c-0.1,0-0.2,0.1-0.2,0.2v6.5c0,0.1,0.1,0.2,0.2,0.2h11.5c0.1,0,0.2-0.1,0.2-0.2
	V82.7z"/>
<path d="M294.1,84.2c0,0.1-0.1,0.2-0.2,0.2h-0.5c-0.1,0-0.2-0.1-0.2-0.2v-0.5c0-0.1,0.1-0.2,0.2-0.2h0.5c0.1,0,0.2,0.1,0.2,0.2V84.2
	z"/>
<path d="M294.1,86.2c0,0.1-0.1,0.2-0.2,0.2h-0.5c-0.1,0-0.2-0.1-0.2-0.2v-0.5c0-0.1,0.1-0.2,0.2-0.2h0.5c0.1,0,0.2,0.1,0.2,0.2V86.2
	z"/>
<path d="M294.1,88.2c0,0.1-0.1,0.2-0.2,0.2h-0.5c-0.1,0-0.2-0.1-0.2-0.2v-0.5c0-0.1,0.1-0.2,0.2-0.2h0.5c0.1,0,0.2,0.1,0.2,0.2V88.2
	z"/>
<path d="M303.1,84.2c0,0.1-0.1,0.2-0.2,0.2h-7.5c-0.1,0-0.2-0.1-0.2-0.2v-0.5c0-0.1,0.1-0.2,0.2-0.2h7.5c0.1,0,0.2,0.1,0.2,0.2V84.2
	z"/>
<path d="M303.1,86.2c0,0.1-0.1,0.2-0.2,0.2h-7.5c-0.1,0-0.2-0.1-0.2-0.2v-0.5c0-0.1,0.1-0.2,0.2-0.2h7.5c0.1,0,0.2,0.1,0.2,0.2V86.2
	z"/>
<path d="M303.1,88.2c0,0.1-0.1,0.2-0.2,0.2h-7.5c-0.1,0-0.2-0.1-0.2-0.2v-0.5c0-0.1,0.1-0.2,0.2-0.2h7.5c0.1,0,0.2,0.1,0.2,0.2V88.2
	z"/>
<path d="M329.3,90.2c0,0.7-0.6,1.2-1.2,1.2h-10.5c-0.7,0-1.2-0.6-1.2-1.2v-9.5c0-0.7,0.6-1.2,1.2-1.2H328c0.7,0,1.2,0.6,1.2,1.2
	V90.2z"/>
<path d="M322.3,90.4v-9h-5v8.8c0,0.1,0.1,0.2,0.2,0.2H322.3z"/>
<path d="M328.3,81.4h-5v9h4.8c0.1,0,0.2-0.1,0.2-0.2V81.4z"/>
<path d="M353.5,89.2c0,0.7-0.6,1.2-1.2,1.2h-10.5c-0.7,0-1.2-0.6-1.2-1.2v-8.5c0-0.7,0.6-1.2,1.2-1.2h10.5c0.7,0,1.2,0.6,1.2,1.2
	V89.2z"/>
<path d="M344.5,81.7c0-0.1-0.1-0.2-0.2-0.2h-2.5c-0.1,0-0.2,0.1-0.2,0.2v1.5c0,0.1,0.1,0.2,0.2,0.2h2.5c0.1,0,0.2-0.1,0.2-0.2V81.7z
	"/>
<path d="M344.5,84.7c0-0.1-0.1-0.2-0.2-0.2h-2.5c-0.1,0-0.2,0.1-0.2,0.2v1.5c0,0.1,0.1,0.2,0.2,0.2h2.5c0.1,0,0.2-0.1,0.2-0.2V84.7z
	"/>
<path d="M344.5,87.7c0-0.1-0.1-0.2-0.2-0.2h-2.5c-0.1,0-0.2,0.1-0.2,0.2v1.5c0,0.1,0.1,0.2,0.2,0.2h2.5c0.1,0,0.2-0.1,0.2-0.2V87.7z
	"/>
<path d="M348.5,81.7c0-0.1-0.1-0.2-0.2-0.2h-2.5c-0.1,0-0.2,0.1-0.2,0.2v1.5c0,0.1,0.1,0.2,0.2,0.2h2.5c0.1,0,0.2-0.1,0.2-0.2V81.7z
	"/>
<path d="M348.5,84.7c0-0.1-0.1-0.2-0.2-0.2h-2.5c-0.1,0-0.2,0.1-0.2,0.2v1.5c0,0.1,0.1,0.2,0.2,0.2h2.5c0.1,0,0.2-0.1,0.2-0.2V84.7z
	"/>
<path d="M348.5,87.7c0-0.1-0.1-0.2-0.2-0.2h-2.5c-0.1,0-0.2,0.1-0.2,0.2v1.5c0,0.1,0.1,0.2,0.2,0.2h2.5c0.1,0,0.2-0.1,0.2-0.2V87.7z
	"/>
<path d="M352.5,81.7c0-0.1-0.1-0.2-0.2-0.2h-2.5c-0.1,0-0.2,0.1-0.2,0.2v1.5c0,0.1,0.1,0.2,0.2,0.2h2.5c0.1,0,0.2-0.1,0.2-0.2V81.7z
	"/>
<path d="M352.5,84.7c0-0.1-0.1-0.2-0.2-0.2h-2.5c-0.1,0-0.2,0.1-0.2,0.2v1.5c0,0.1,0.1,0.2,0.2,0.2h2.5c0.1,0,0.2-0.1,0.2-0.2V84.7z
	"/>
<path d="M352.5,87.7c0-0.1-0.1-0.2-0.2-0.2h-2.5c-0.1,0-0.2,0.1-0.2,0.2v1.5c0,0.1,0.1,0.2,0.2,0.2h2.5c0.1,0,0.2-0.1,0.2-0.2V87.7z
	"/>
<rect x="364.7" y="81.4" width="1.8" height="1"/>
<rect x="364.7" y="85.4" width="6.8" height="1"/>
<rect x="364.7" y="89.4" width="2.8" height="1"/>
<path d="M369.7,80.9v2c0,0.3-0.2,0.5-0.5,0.5h-2c-0.3,0-0.5-0.2-0.5-0.5v-2c0-0.3,0.2-0.5,0.5-0.5h2
	C369.5,80.4,369.7,80.7,369.7,80.9z"/>
<path d="M370.7,88.9v2c0,0.3-0.2,0.5-0.5,0.5h-2c-0.3,0-0.5-0.2-0.5-0.5v-2c0-0.3,0.2-0.5,0.5-0.5h2
	C370.5,88.4,370.7,88.7,370.7,88.9z"/>
<rect x="370" y="81.4" width="6.8" height="1"/>
<rect x="371" y="89.4" width="5.8" height="1"/>
<path d="M374.7,84.9v2c0,0.3-0.2,0.5-0.5,0.5h-2c-0.3,0-0.5-0.2-0.5-0.5v-2c0-0.3,0.2-0.5,0.5-0.5h2
	C374.5,84.4,374.7,84.7,374.7,84.9z"/>
<rect x="375" y="85.4" width="1.8" height="1"/>
<path class="st1" d="M260.3,70.8h-18.8c-0.7,0-1.3-0.6-1.3-1.3V40.1c0-0.7,0.6-1.3,1.3-1.3h18.8c0.7,0,1.3,0.6,1.3,1.3v29.4
	C261.6,70.3,261.1,70.8,260.3,70.8z"/>
<line class="st2" x1="245.2" y1="52.1" x2="256.9" y2="52.1"/>
<line class="st2" x1="245.2" y1="61.2" x2="256.9" y2="61.2"/>
<line class="st2" x1="245.2" y1="56.6" x2="256.9" y2="56.6"/>
<line class="st2" x1="245.2" y1="65.7" x2="256.9" y2="65.7"/>
<line class="st2" x1="253.8" y1="44" x2="258.1" y2="44"/>
</svg>
