<?xml version="1.0" encoding="utf-8"?>
<!-- Generator: Adobe Illustrator 19.2.1, SVG Export Plug-In . SVG Version: 6.00 Build 0)  -->
<svg version="1.1" id="Ebene_1" xmlns="http://www.w3.org/2000/svg" xmlns:xlink="http://www.w3.org/1999/xlink" x="0px" y="0px"
	 width="52.3px" height="45.3px" viewBox="0 0 52.3 45.3" style="enable-background:new 0 0 52.3 45.3;" xml:space="preserve">
<style type="text/css">
	.st0{fill:#F18518;}
</style>
<path class="st0" d="M47.9,0H4.4C2,0,0,2,0,4.4V34c0,2.4,2,4.4,4.4,4.4h14.8c0,2.4-1.7,4.2-1.7,5.2c0,1,0.8,1.7,1.7,1.7h13.9
	c1,0,1.7-0.8,1.7-1.7c0-1-1.7-2.9-1.7-5.2h14.8c2.4,0,4.4-2,4.4-4.4V4.4C52.3,2,50.3,0,47.9,0z M48.8,27c0,0.5-0.4,0.9-0.9,0.9H4.4
	c-0.5,0-0.9-0.4-0.9-0.9V4.4c0-0.5,0.4-0.9,0.9-0.9h43.5c0.5,0,0.9,0.4,0.9,0.9V27z"/>
</svg>
