<?xml version="1.0" encoding="utf-8"?>
<!-- Generator: Adobe Illustrator 16.0.4, SVG Export Plug-In . SVG Version: 6.00 Build 0)  -->
<!DOCTYPE svg PUBLIC "-//W3C//DTD SVG 1.0//EN" "http://www.w3.org/TR/2001/REC-SVG-20010904/DTD/svg10.dtd">
<svg version="1.0" id="Layer_1" xmlns="http://www.w3.org/2000/svg" xmlns:xlink="http://www.w3.org/1999/xlink" x="0px" y="0px"
	 width="64px" height="64px" viewBox="0 0 64 64" enable-background="new 0 0 64 64" xml:space="preserve">
<g>
	<defs>
		<rect id="SVGID_1_" width="64" height="64"/>
	</defs>
	<clipPath id="SVGID_2_">
		<use xlink:href="#SVGID_1_"  overflow="visible"/>
	</clipPath>
	<g clip-path="url(#SVGID_2_)">
		<defs>
			<rect id="SVGID_3_" width="64" height="64"/>
		</defs>
		<clipPath id="SVGID_4_">
			<use xlink:href="#SVGID_3_"  overflow="visible"/>
		</clipPath>
		<path clip-path="url(#SVGID_4_)" fill="#76C2AF" d="M64,32c0,17.673-14.327,32-32,32S0,49.673,0,32S14.327,0,32,0S64,14.327,64,32
			"/>
		<g opacity="0.2" clip-path="url(#SVGID_4_)">
			<g>
				<defs>
					<rect id="SVGID_5_" x="12.05" y="14.128" width="39.021" height="38.943"/>
				</defs>
				<clipPath id="SVGID_6_">
					<use xlink:href="#SVGID_5_"  overflow="visible"/>
				</clipPath>
				<path clip-path="url(#SVGID_6_)" fill="#231F20" d="M49.899,46.242L35.758,32.101c-1.031-1.031-2.481-1.367-3.799-1.037
					l-8.093-7.993l-3.037-5.899l-5.911-3.043l-2.867,2.867l3.043,5.911l5.911,3.043l0.008-0.008l8.066,7.967
					c-0.352,1.331-0.022,2.806,1.022,3.85l14.142,14.142c1.562,1.562,4.096,1.562,5.657,0
					C51.462,50.338,51.462,47.805,49.899,46.242"/>
			</g>
		</g>
		<polygon clip-path="url(#SVGID_4_)" fill="#4F5D73" points="34.499,37.263 18.397,21.359 21.331,18.567 37.434,34.471 		"/>
		<path clip-path="url(#SVGID_4_)" fill="#F5CF87" d="M49.899,49.899c-1.562,1.562-4.095,1.562-5.657,0L30.101,35.758
			c-1.562-1.562-1.562-4.095,0-5.657s4.095-1.562,5.657,0l14.142,14.142C51.462,45.805,51.462,48.338,49.899,49.899"/>
		<g opacity="0.2" clip-path="url(#SVGID_4_)">
			<g>
				<defs>
					<rect id="SVGID_7_" x="10" y="12" width="44" height="44"/>
				</defs>
				<clipPath id="SVGID_8_">
					<use xlink:href="#SVGID_7_"  overflow="visible"/>
				</clipPath>
				<path clip-path="url(#SVGID_8_)" fill="#231F20" d="M53.304,18.353l-6.476,6.476c-1.562,1.562-4.094,1.562-5.656,0
					c-1.562-1.563-1.562-4.095,0-5.657l6.476-6.476C46.516,12.252,45.289,12,44,12c-5.523,0-10,4.477-10,10
					c0,1.289,0.252,2.516,0.696,3.647L23.647,36.696C22.516,36.252,21.289,36,20,36c-5.523,0-10,4.477-10,10
					c0,1.289,0.252,2.516,0.696,3.646l6.476-6.475c1.562-1.562,4.094-1.562,5.656,0c1.563,1.562,1.563,4.094,0,5.657l-6.475,6.475
					C17.484,55.748,18.712,56,20,56c5.523,0,10-4.478,10-10c0-1.288-0.252-2.516-0.696-3.647l11.048-11.049
					C41.484,31.748,42.712,32,44,32c5.523,0,10-4.477,10-10C54,20.712,53.748,19.484,53.304,18.353"/>
			</g>
		</g>
		
			<rect x="23.43" y="28" transform="matrix(0.7071 -0.7071 0.7071 0.7071 -13.2548 31.9991)" clip-path="url(#SVGID_4_)" fill="#FFFFFF" width="17.141" height="8"/>
		<polygon clip-path="url(#SVGID_4_)" fill="#4F5D73" points="21.004,23.95 15.094,20.906 12.051,14.996 14.917,12.128 
			20.829,15.172 23.872,21.083 		"/>
		<path clip-path="url(#SVGID_4_)" fill="#FFFFFF" d="M46.828,22.829c-1.562,1.562-4.095,1.562-5.656,0
			c-1.562-1.562-1.562-4.095,0-5.657l6.476-6.475C46.517,10.252,45.288,10,44,10c-5.522,0-10,4.477-10,10c0,5.522,4.478,10,10,10
			s10-4.478,10-10c0-1.289-0.253-2.516-0.695-3.648L46.828,22.829z"/>
		<path clip-path="url(#SVGID_4_)" fill="#FFFFFF" d="M17.171,41.172c1.562-1.562,4.095-1.562,5.657,0
			c1.562,1.562,1.562,4.095,0,5.656l-6.476,6.476C17.483,53.748,18.711,54,20,54c5.523,0,10-4.478,10-10s-4.477-10-10-10
			c-5.522,0-10,4.478-10,10c0,1.289,0.253,2.516,0.696,3.647L17.171,41.172z"/>
	</g>
</g>
</svg>
