<?xml version="1.0" encoding="utf-8"?>
<!-- Generator: Adobe Illustrator 16.0.4, SVG Export Plug-In . SVG Version: 6.00 Build 0)  -->
<!DOCTYPE svg PUBLIC "-//W3C//DTD SVG 1.0//EN" "http://www.w3.org/TR/2001/REC-SVG-20010904/DTD/svg10.dtd">
<svg version="1.0" id="Layer_1" xmlns="http://www.w3.org/2000/svg" xmlns:xlink="http://www.w3.org/1999/xlink" x="0px" y="0px"
	 width="64px" height="64px" viewBox="0 0 64 64" enable-background="new 0 0 64 64" xml:space="preserve">
<g>
	<defs>
		<rect id="SVGID_1_" width="64" height="64"/>
	</defs>
	<clipPath id="SVGID_2_">
		<use xlink:href="#SVGID_1_"  overflow="visible"/>
	</clipPath>
	<g clip-path="url(#SVGID_2_)">
		<defs>
			<rect id="SVGID_3_" width="64" height="64"/>
		</defs>
		<clipPath id="SVGID_4_">
			<use xlink:href="#SVGID_3_"  overflow="visible"/>
		</clipPath>
		<path clip-path="url(#SVGID_4_)" fill="#C75C5C" d="M64,32c0,17.673-14.327,32-32,32S0,49.673,0,32S14.327,0,32,0S64,14.327,64,32
			"/>
		<g opacity="0.2" clip-path="url(#SVGID_4_)">
			<g>
				<defs>
					<rect id="SVGID_5_" x="25" y="43.338" width="14" height="12.662"/>
				</defs>
				<clipPath id="SVGID_6_">
					<use xlink:href="#SVGID_5_"  overflow="visible"/>
				</clipPath>
				<path clip-path="url(#SVGID_6_)" fill="#231F20" d="M25,43.338v7.896c0,0.48,0.563,1.308,0.98,1.548l5.262,3.038
					c0.417,0.241,1.099,0.241,1.516,0l5.262-3.038c0.417-0.24,0.98-1.067,0.98-1.548v-7.896C36.888,44.393,34.516,45,32,45
					C29.484,45,27.112,44.393,25,43.338"/>
			</g>
		</g>
		<path clip-path="url(#SVGID_4_)" fill="#E0E0D1" d="M25,41.338v7.896c0,0.48,0.563,1.308,0.98,1.548l5.262,3.038
			c0.417,0.241,1.099,0.241,1.516,0l5.262-3.038c0.417-0.24,0.98-1.067,0.98-1.548v-7.896C36.888,42.393,34.516,43,32,43
			C29.484,43,27.112,42.393,25,41.338"/>
		<g opacity="0.2" clip-path="url(#SVGID_4_)">
			<g>
				<defs>
					<rect id="SVGID_7_" x="17.566" y="20.133" width="28.867" height="28.867"/>
				</defs>
				<clipPath id="SVGID_8_">
					<use xlink:href="#SVGID_7_"  overflow="visible"/>
				</clipPath>
				<path clip-path="url(#SVGID_8_)" fill="#231F20" d="M32,20.133c-7.971,0-14.433,6.462-14.433,14.434
					C17.567,42.538,24.029,49,32,49c7.971,0,14.433-6.462,14.433-14.433C46.433,26.595,39.971,20.133,32,20.133"/>
			</g>
		</g>
		<path clip-path="url(#SVGID_4_)" fill="#FFFFFF" d="M32,17.566c-7.971,0-14.433,6.462-14.433,14.435
			c0,7.971,6.462,14.433,14.433,14.433c7.971,0,14.433-6.462,14.433-14.433C46.433,24.028,39.971,17.566,32,17.566"/>
		<g opacity="0.2" clip-path="url(#SVGID_4_)">
			<g>
				<defs>
					<rect id="SVGID_9_" x="30.5" y="12" width="3" height="5"/>
				</defs>
				<clipPath id="SVGID_10_">
					<use xlink:href="#SVGID_9_"  overflow="visible"/>
				</clipPath>
				<path clip-path="url(#SVGID_10_)" fill="#231F20" d="M33.5,15.5c0,0.829-0.672,1.5-1.5,1.5s-1.5-0.671-1.5-1.5v-2
					c0-0.828,0.672-1.5,1.5-1.5s1.5,0.672,1.5,1.5V15.5z"/>
			</g>
		</g>
		<g opacity="0.2" clip-path="url(#SVGID_4_)">
			<g>
				<defs>
					<rect id="SVGID_11_" x="49" y="32.5" width="5" height="3"/>
				</defs>
				<clipPath id="SVGID_12_">
					<use xlink:href="#SVGID_11_"  overflow="visible"/>
				</clipPath>
				<path clip-path="url(#SVGID_12_)" fill="#231F20" d="M50.5,35.5c-0.828,0-1.5-0.671-1.5-1.5c0-0.828,0.672-1.5,1.5-1.5h2
					c0.828,0,1.5,0.672,1.5,1.5c0,0.829-0.672,1.5-1.5,1.5H50.5z"/>
			</g>
		</g>
		<g opacity="0.2" clip-path="url(#SVGID_4_)">
			<g>
				<defs>
					<rect id="SVGID_13_" x="10" y="32.5" width="5" height="3"/>
				</defs>
				<clipPath id="SVGID_14_">
					<use xlink:href="#SVGID_13_"  overflow="visible"/>
				</clipPath>
				<path clip-path="url(#SVGID_14_)" fill="#231F20" d="M13.5,32.5c0.828,0,1.5,0.672,1.5,1.5c0,0.829-0.672,1.5-1.5,1.5h-2
					c-0.828,0-1.5-0.671-1.5-1.5c0-0.828,0.672-1.5,1.5-1.5H13.5z"/>
			</g>
		</g>
		<g opacity="0.2" clip-path="url(#SVGID_4_)">
			<g>
				<defs>
					<rect id="SVGID_15_" x="20.25" y="14.746" width="4" height="4.732"/>
				</defs>
				<clipPath id="SVGID_16_">
					<use xlink:href="#SVGID_15_"  overflow="visible"/>
				</clipPath>
				<path clip-path="url(#SVGID_16_)" fill="#231F20" d="M24.049,17.229c0.414,0.717,0.168,1.635-0.549,2.049
					s-1.635,0.168-2.049-0.549l-1-1.732c-0.414-0.718-0.168-1.635,0.549-2.049s1.635-0.169,2.049,0.549L24.049,17.229z"/>
			</g>
		</g>
		<g opacity="0.2" clip-path="url(#SVGID_4_)">
			<g>
				<defs>
					<rect id="SVGID_17_" x="46.521" y="22.25" width="4.732" height="4"/>
				</defs>
				<clipPath id="SVGID_18_">
					<use xlink:href="#SVGID_17_"  overflow="visible"/>
				</clipPath>
				<path clip-path="url(#SVGID_18_)" fill="#231F20" d="M48.771,26.049c-0.717,0.414-1.635,0.168-2.049-0.549
					c-0.414-0.717-0.168-1.635,0.549-2.049l1.732-1c0.718-0.414,1.635-0.168,2.049,0.549c0.414,0.717,0.169,1.635-0.549,2.049
					L48.771,26.049z"/>
			</g>
		</g>
		<g opacity="0.2" clip-path="url(#SVGID_4_)">
			<g>
				<defs>
					<rect id="SVGID_19_" x="12.746" y="41.749" width="4.733" height="4.001"/>
				</defs>
				<clipPath id="SVGID_20_">
					<use xlink:href="#SVGID_19_"  overflow="visible"/>
				</clipPath>
				<path clip-path="url(#SVGID_20_)" fill="#231F20" d="M15.229,41.951c0.717-0.414,1.635-0.169,2.049,0.549
					c0.414,0.717,0.168,1.635-0.549,2.049l-1.732,1c-0.717,0.414-1.635,0.168-2.049-0.549c-0.414-0.718-0.168-1.636,0.549-2.049
					L15.229,41.951z"/>
			</g>
		</g>
		<g opacity="0.2" clip-path="url(#SVGID_4_)">
			<g>
				<defs>
					<rect id="SVGID_21_" x="12.746" y="22.25" width="4.733" height="4"/>
				</defs>
				<clipPath id="SVGID_22_">
					<use xlink:href="#SVGID_21_"  overflow="visible"/>
				</clipPath>
				<path clip-path="url(#SVGID_22_)" fill="#231F20" d="M16.729,23.451c0.717,0.414,0.963,1.332,0.549,2.049
					c-0.414,0.717-1.332,0.963-2.049,0.549l-1.732-1c-0.717-0.414-0.963-1.332-0.549-2.049c0.414-0.717,1.332-0.963,2.049-0.549
					L16.729,23.451z"/>
			</g>
		</g>
		<g opacity="0.2" clip-path="url(#SVGID_4_)">
			<g>
				<defs>
					<rect id="SVGID_23_" x="46.521" y="41.749" width="4.732" height="4.001"/>
				</defs>
				<clipPath id="SVGID_24_">
					<use xlink:href="#SVGID_23_"  overflow="visible"/>
				</clipPath>
				<path clip-path="url(#SVGID_24_)" fill="#231F20" d="M47.271,44.549c-0.717-0.414-0.963-1.332-0.549-2.049
					s1.332-0.963,2.049-0.549l1.732,1c0.718,0.414,0.963,1.332,0.549,2.049s-1.331,0.963-2.049,0.549L47.271,44.549z"/>
			</g>
		</g>
		<g opacity="0.2" clip-path="url(#SVGID_4_)">
			<g>
				<defs>
					<rect id="SVGID_25_" x="39.75" y="14.746" width="4" height="4.732"/>
				</defs>
				<clipPath id="SVGID_26_">
					<use xlink:href="#SVGID_25_"  overflow="visible"/>
				</clipPath>
				<path clip-path="url(#SVGID_26_)" fill="#231F20" d="M42.549,18.729c-0.414,0.717-1.332,0.963-2.049,0.549
					s-0.963-1.332-0.549-2.049l1-1.732c0.414-0.718,1.332-0.963,2.049-0.549s0.963,1.331,0.549,2.049L42.549,18.729z"/>
			</g>
		</g>
		<path clip-path="url(#SVGID_4_)" fill="#FFFFFF" d="M32,17.566c-7.971,0-14.433,6.462-14.433,14.435
			c0,7.971,6.462,14.433,14.433,14.433c7.971,0,14.433-6.462,14.433-14.433C46.433,24.028,39.971,17.566,32,17.566"/>
		<path clip-path="url(#SVGID_4_)" fill="#E0E0D1" d="M33.5,13.5c0,0.828-0.672,1.5-1.5,1.5s-1.5-0.672-1.5-1.5v-2
			c0-0.828,0.672-1.5,1.5-1.5s1.5,0.672,1.5,1.5V13.5z"/>
		<path clip-path="url(#SVGID_4_)" fill="#E0E0D1" d="M50.5,33.5c-0.828,0-1.5-0.672-1.5-1.5s0.672-1.5,1.5-1.5h2
			c0.828,0,1.5,0.672,1.5,1.5s-0.672,1.5-1.5,1.5H50.5z"/>
		<path clip-path="url(#SVGID_4_)" fill="#E0E0D1" d="M13.5,30.5c0.828,0,1.5,0.672,1.5,1.5s-0.672,1.5-1.5,1.5h-2
			c-0.828,0-1.5-0.672-1.5-1.5s0.672-1.5,1.5-1.5H13.5z"/>
		<path clip-path="url(#SVGID_4_)" fill="#E0E0D1" d="M24.049,15.229c0.414,0.717,0.168,1.635-0.549,2.049s-1.635,0.168-2.049-0.549
			l-1-1.732c-0.414-0.718-0.168-1.635,0.549-2.049c0.717-0.414,1.635-0.169,2.049,0.549L24.049,15.229z"/>
		<path clip-path="url(#SVGID_4_)" fill="#E0E0D1" d="M48.771,24.049c-0.717,0.414-1.635,0.168-2.049-0.549
			s-0.168-1.635,0.549-2.049l1.732-1c0.718-0.414,1.635-0.168,2.049,0.549s0.169,1.635-0.549,2.049L48.771,24.049z"/>
		<path clip-path="url(#SVGID_4_)" fill="#E0E0D1" d="M15.229,39.951c0.717-0.414,1.635-0.168,2.049,0.549s0.168,1.635-0.549,2.049
			l-1.732,1c-0.717,0.414-1.635,0.168-2.049-0.549c-0.414-0.717-0.168-1.635,0.549-2.049L15.229,39.951z"/>
		<path clip-path="url(#SVGID_4_)" fill="#E0E0D1" d="M16.729,21.451c0.717,0.414,0.963,1.332,0.549,2.049s-1.332,0.963-2.049,0.549
			l-1.732-1c-0.717-0.414-0.963-1.332-0.549-2.049c0.414-0.717,1.332-0.963,2.049-0.549L16.729,21.451z"/>
		<path clip-path="url(#SVGID_4_)" fill="#E0E0D1" d="M47.271,42.549c-0.717-0.414-0.963-1.332-0.549-2.049s1.332-0.963,2.049-0.549
			l1.732,1c0.718,0.414,0.963,1.332,0.549,2.049s-1.331,0.963-2.049,0.549L47.271,42.549z"/>
		<path clip-path="url(#SVGID_4_)" fill="#E0E0D1" d="M42.549,16.729c-0.414,0.717-1.332,0.963-2.049,0.549
			s-0.963-1.332-0.549-2.049l1-1.732c0.414-0.718,1.332-0.963,2.049-0.549c0.717,0.414,0.963,1.331,0.549,2.049L42.549,16.729z"/>
	</g>
</g>
</svg>
