<?xml version="1.0" encoding="utf-8"?>
<!-- Generator: Adobe Illustrator 16.0.4, SVG Export Plug-In . SVG Version: 6.00 Build 0)  -->
<!DOCTYPE svg PUBLIC "-//W3C//DTD SVG 1.1//EN" "http://www.w3.org/Graphics/SVG/1.1/DTD/svg11.dtd">
<svg version="1.1" id="Layer_1" xmlns="http://www.w3.org/2000/svg" xmlns:xlink="http://www.w3.org/1999/xlink" x="0px" y="0px"
	 width="140px" height="70px" viewBox="0 0 140 70" enable-background="new 0 0 140 70" xml:space="preserve">
<g>
	<rect fill="#70706F" width="140" height="70"/>
	<g>
		<g>
			<path fill="#FFFFFF" d="M48.942,41.914c-0.542,0.158-0.975,0.215-1.54,0.215c-4.633,0-11.441-16.196-11.441-21.586
				c0-1.985,0.472-2.647,1.135-3.215c-5.673,0.662-12.482,2.743-14.658,5.39c-0.472,0.662-0.757,1.702-0.757,3.026
				c0,8.416,8.984,27.517,15.32,27.517C39.931,53.261,44.875,48.436,48.942,41.914L48.942,41.914z"/>
			<path fill="#FFFFFF" d="M45.984,16.761c5.862,0,11.726,0.945,11.726,4.254c0,6.714-4.256,14.848-6.43,14.848
				c-3.877,0-8.7-10.779-8.7-16.17C42.579,17.232,43.525,16.761,45.984,16.761z"/>
		</g>
		<g>
			<rect x="68.58" y="6.086" fill="#FFFFFF" width="0.326" height="58.318"/>
			<g>
				<path fill="#FFFFFF" d="M81.003,18.241v-0.854h4.424v0.854h-1.728v6.988h-0.974v-6.988H81.003z"/>
				<path fill="#FFFFFF" d="M86.384,17.388h1.078l1.472,3.26l1.471-3.26h1.022l-2.039,4.2v3.643h-0.995v-3.643L86.384,17.388z"/>
				<path fill="#FFFFFF" d="M92.485,25.229v-7.842c0.641-0.051,1.271-0.076,1.892-0.076c1.458,0,2.189,0.807,2.192,2.422
					c0,0.873-0.168,1.514-0.504,1.918c-0.338,0.406-0.894,0.609-1.668,0.609h-0.939v2.969H92.485z M93.458,21.456h1.057
					c0.707,0,1.062-0.54,1.062-1.621c0-0.596-0.081-1.031-0.241-1.307c-0.161-0.275-0.435-0.413-0.819-0.413
					c-0.412,0-0.719,0.019-0.919,0.054l-0.138,0.011L93.458,21.456L93.458,21.456z"/>
				<path fill="#FFFFFF" d="M98.173,24.35c-0.335-0.639-0.502-1.664-0.502-3.073c0-1.411,0.167-2.426,0.502-3.042
					c0.336-0.616,0.948-0.924,1.838-0.924c0.891,0,1.503,0.308,1.839,0.924c0.335,0.616,0.503,1.63,0.503,3.042
					c0,1.409-0.168,2.435-0.503,3.073c-0.336,0.638-0.948,0.957-1.839,0.957C99.121,25.307,98.509,24.988,98.173,24.35z
					 M98.958,18.803c-0.194,0.439-0.293,1.264-0.293,2.475c0,1.21,0.101,2.051,0.299,2.521c0.198,0.47,0.547,0.705,1.047,0.705
					s0.85-0.235,1.048-0.705c0.198-0.471,0.299-1.312,0.299-2.521c0-1.211-0.099-2.035-0.293-2.475
					c-0.195-0.44-0.546-0.66-1.054-0.66C99.504,18.143,99.153,18.363,98.958,18.803z"/>
				<path fill="#FFFFFF" d="M103.384,25.104v-0.832c0.576,0.121,1.035,0.182,1.379,0.182c0.679,0,1.018-0.445,1.018-1.332
					c0-0.554-0.065-0.952-0.197-1.193c-0.131-0.242-0.386-0.363-0.766-0.363h-0.919v-0.803h0.805c0.634,0,0.951-0.46,0.951-1.379
					c0-0.434-0.069-0.749-0.208-0.945c-0.138-0.197-0.354-0.296-0.647-0.296c-0.294,0-0.747,0.062-1.358,0.188v-0.805
					c0.703-0.143,1.156-0.213,1.355-0.213c0.612,0,1.067,0.162,1.364,0.483c0.297,0.323,0.445,0.885,0.445,1.688
					c0,0.909-0.282,1.448-0.849,1.62c0.664,0.09,0.996,0.725,0.996,1.904c0,0.814-0.156,1.4-0.471,1.759
					c-0.313,0.36-0.791,0.541-1.433,0.541C104.448,25.31,103.96,25.243,103.384,25.104z"/>
				<path fill="#FFFFFF" d="M81.112,33c0-0.804,0.223-1.379,0.668-1.727c0.443-0.348,1.111-0.521,2.001-0.521
					c0.522,0,0.987,0.055,1.394,0.164v1.318c-0.465-0.109-0.95-0.164-1.459-0.164c-0.016,0-0.03,0-0.049,0
					c-0.664,0-0.996,0.268-0.996,0.804c0,0.351,0.059,0.589,0.172,0.716c0.115,0.129,0.354,0.23,0.716,0.307
					c0.592,0.121,1.04,0.361,1.346,0.723c0.306,0.36,0.459,0.934,0.459,1.716c0,1.021-0.248,1.688-0.741,2.006
					c-0.252,0.161-0.519,0.27-0.8,0.323c-0.282,0.057-0.688,0.083-1.213,0.083c-0.527,0-1.004-0.054-1.43-0.163v-1.341
					c0.463,0.123,0.956,0.186,1.48,0.186c0.762,0,1.145-0.328,1.145-0.982c0-0.388-0.077-0.667-0.23-0.838
					c-0.152-0.171-0.394-0.292-0.722-0.36c-0.62-0.128-1.065-0.369-1.335-0.723C81.247,34.173,81.112,33.664,81.112,33z"/>
				<path fill="#FFFFFF" d="M86.207,38.67v-1.207h0.782v-5.426h-0.782v-1.209h3.102v1.209h-0.781v5.426h0.781v1.207H86.207z"/>
				<path fill="#FFFFFF" d="M90.51,38.67v-7.842h1.536v6.525h2.275v1.316L90.51,38.67L90.51,38.67z"/>
				<path fill="#FFFFFF" d="M94.493,30.828h1.559l1.18,6.744l1.222-6.744h1.494l-1.57,7.842h-2.366L94.493,30.828z"/>
				<path fill="#FFFFFF" d="M101.1,38.67v-7.842h4.014v1.209h-2.479v1.975h2.193v1.209h-2.193v2.243h2.479v1.206H101.1L101.1,38.67z
					"/>
				<path fill="#FFFFFF" d="M106.396,38.67v-7.842c0.755-0.072,1.441-0.109,2.062-0.109c0.935,0,1.585,0.193,1.955,0.58
					c0.37,0.386,0.555,1.002,0.555,1.85c0,1.153-0.354,1.91-1.065,2.271l1.399,3.25h-1.732l-1.188-2.99h-0.448v2.99H106.396z
					 M107.933,34.348h0.706c0.239,0,0.429-0.097,0.564-0.29s0.205-0.493,0.205-0.901c0-0.407-0.053-0.703-0.161-0.887
					c-0.106-0.184-0.316-0.275-0.632-0.275l-0.684,0.064L107.933,34.348L107.933,34.348z"/>
				<path fill="#FFFFFF" d="M81.785,52.111v-7.844h1.581l1.064,4.202l1.059-4.202h1.453v7.844h-0.93v-7.033l-1.195,4.403
					l-0.863-0.021l-1.262-4.662v7.313H81.785z"/>
				<path fill="#FFFFFF" d="M88.291,52.111v-7.844h3.675v0.83h-2.7v2.565h2.422v0.805h-2.422v2.812h2.7v0.832H88.291z"/>
				<path fill="#FFFFFF" d="M93.552,52.111v-7.844h1.581l1.064,4.202l1.059-4.202h1.453v7.844h-0.93v-7.033l-1.194,4.403
					l-0.862-0.021l-1.263-4.662v7.313H93.552z"/>
				<path fill="#FFFFFF" d="M100.058,52.111v-7.844c0.692-0.051,1.282-0.077,1.771-0.077c0.704,0,1.237,0.159,1.604,0.481
					c0.363,0.32,0.547,0.842,0.547,1.567c0,0.435-0.088,0.799-0.264,1.093c-0.175,0.293-0.387,0.492-0.635,0.601
					c0.722,0.254,1.083,0.845,1.083,1.771c0,0.924-0.188,1.571-0.563,1.937c-0.377,0.363-0.924,0.547-1.641,0.547
					c-0.642,0-1.187-0.019-1.635-0.056L100.058,52.111z M101.031,47.588h0.93c0.496,0,0.813-0.19,0.952-0.576
					c0.062-0.178,0.093-0.46,0.093-0.846s-0.072-0.677-0.219-0.875c-0.146-0.197-0.421-0.295-0.826-0.295
					c-0.359,0-0.632,0.019-0.813,0.056l-0.115,0.012L101.031,47.588L101.031,47.588z M101.031,51.328
					c0.372,0.037,0.725,0.055,1.059,0.055c0.333,0,0.598-0.105,0.79-0.319c0.193-0.215,0.29-0.599,0.29-1.152
					c0-0.555-0.082-0.946-0.246-1.175c-0.164-0.23-0.445-0.343-0.848-0.343h-1.045V51.328z"/>
				<path fill="#FFFFFF" d="M105.476,52.111v-7.844h3.676v0.83h-2.702v2.565h2.423v0.805h-2.423v2.812h2.702v0.832H105.476z"/>
				<path fill="#FFFFFF" d="M110.737,52.111v-7.844c0.642-0.051,1.271-0.077,1.893-0.077c0.804,0,1.365,0.195,1.688,0.582
					c0.322,0.389,0.481,0.955,0.481,1.701c0,1.193-0.371,1.935-1.114,2.222l1.528,3.416h-1.07l-1.432-3.262h-1.002v3.262H110.737z
					 M111.71,48.047h1.058c0.342,0,0.602-0.104,0.774-0.313c0.176-0.211,0.265-0.6,0.265-1.17s-0.077-0.974-0.23-1.211
					c-0.152-0.236-0.423-0.355-0.809-0.355c-0.412,0-0.72,0.018-0.92,0.055l-0.138,0.012V48.047z"/>
			</g>
		</g>
	</g>
</g>
<g>
</g>
<g>
</g>
<g>
</g>
<g>
</g>
<g>
</g>
<g>
</g>
</svg>
