<?xml version="1.0" encoding="utf-8"?>
<!-- Generator: Adobe Illustrator 16.0.4, SVG Export Plug-In . SVG Version: 6.00 Build 0)  -->
<!DOCTYPE svg PUBLIC "-//W3C//DTD SVG 1.1//EN" "http://www.w3.org/Graphics/SVG/1.1/DTD/svg11.dtd">
<svg version="1.1" id="Layer_1" xmlns="http://www.w3.org/2000/svg" xmlns:xlink="http://www.w3.org/1999/xlink" x="0px" y="0px"
	 width="140px" height="70px" viewBox="0 0 140 70" enable-background="new 0 0 140 70" xml:space="preserve">
<g>
	<rect fill="#9A9B9B" width="140" height="70"/>
	<g>
		<g>
			<path fill="#FFFFFF" d="M48.936,41.914c-0.541,0.16-0.973,0.215-1.538,0.215c-4.633,0-11.441-16.195-11.441-21.586
				c0-1.984,0.471-2.646,1.134-3.215c-5.673,0.662-12.482,2.742-14.658,5.391c-0.472,0.662-0.757,1.701-0.757,3.025
				c0,8.416,8.983,27.517,15.32,27.517C39.927,53.261,44.871,48.437,48.936,41.914L48.936,41.914z"/>
			<path fill="#FFFFFF" d="M45.978,16.762c5.863,0,11.727,0.945,11.727,4.254c0,6.715-4.256,14.846-6.43,14.846
				c-3.877,0-8.7-10.779-8.7-16.17C42.575,17.234,43.521,16.762,45.978,16.762z"/>
		</g>
		<g>
			<rect x="68.576" y="6.086" fill="#FFFFFF" width="0.327" height="58.318"/>
			<g>
				<path fill="#FFFFFF" d="M80.998,18.243V17.39h4.425v0.853h-1.729v6.989H82.72v-6.989H80.998z"/>
				<path fill="#FFFFFF" d="M86.38,17.391h1.077l1.47,3.259l1.474-3.259h1.021l-2.04,4.199v3.643h-0.995V21.59L86.38,17.391z"/>
				<path fill="#FFFFFF" d="M92.479,25.232V17.39c0.644-0.051,1.273-0.077,1.894-0.077c1.459,0,2.188,0.808,2.193,2.423
					c0,0.873-0.169,1.513-0.507,1.918c-0.336,0.406-0.893,0.608-1.668,0.608h-0.938v2.97H92.479z M93.453,21.459h1.056
					c0.707,0,1.062-0.541,1.062-1.621c0-0.596-0.08-1.031-0.24-1.307c-0.16-0.276-0.435-0.414-0.82-0.414
					c-0.412,0-0.719,0.019-0.919,0.055l-0.137,0.012L93.453,21.459L93.453,21.459z"/>
				<path fill="#FFFFFF" d="M98.169,24.351c-0.336-0.638-0.504-1.662-0.504-3.073c0-1.411,0.168-2.425,0.504-3.04
					c0.335-0.617,0.947-0.925,1.837-0.925s1.502,0.308,1.837,0.925c0.336,0.615,0.504,1.629,0.504,3.04
					c0,1.411-0.168,2.436-0.504,3.073c-0.335,0.639-0.947,0.957-1.837,0.957S98.504,24.99,98.169,24.351z M98.953,18.804
					c-0.194,0.439-0.292,1.265-0.292,2.475s0.099,2.051,0.297,2.521c0.199,0.47,0.549,0.705,1.048,0.705s0.849-0.235,1.048-0.705
					c0.198-0.471,0.297-1.312,0.297-2.521s-0.097-2.035-0.292-2.475c-0.193-0.438-0.546-0.659-1.053-0.659
					S99.148,18.365,98.953,18.804z"/>
				<path fill="#FFFFFF" d="M103.379,25.106v-0.831c0.576,0.12,1.035,0.181,1.378,0.181c0.678,0,1.019-0.444,1.019-1.332
					c0-0.554-0.066-0.95-0.197-1.192s-0.387-0.363-0.767-0.363h-0.918v-0.804h0.804c0.635,0,0.952-0.46,0.952-1.378
					c0-0.434-0.069-0.75-0.208-0.946c-0.14-0.197-0.354-0.296-0.648-0.296c-0.293,0-0.746,0.062-1.358,0.187v-0.804
					c0.704-0.143,1.155-0.214,1.356-0.214c0.612,0,1.066,0.161,1.364,0.483c0.297,0.322,0.445,0.885,0.445,1.688
					c0,0.909-0.282,1.449-0.848,1.62c0.663,0.091,0.994,0.726,0.994,1.905c0,0.813-0.156,1.4-0.47,1.76
					c-0.314,0.36-0.791,0.539-1.434,0.539C104.443,25.312,103.955,25.245,103.379,25.106z"/>
				<path fill="#FFFFFF" d="M81.61,38.672V30.83c0.867-0.065,1.548-0.098,2.04-0.098c0.903,0,1.543,0.162,1.917,0.486
					c0.373,0.324,0.561,0.863,0.561,1.617c0,0.889-0.334,1.426-1.001,1.615c0.335,0.035,0.622,0.207,0.858,0.514
					c0.236,0.307,0.354,0.74,0.354,1.301c0,0.963-0.217,1.621-0.649,1.976c-0.434,0.354-1.055,0.53-1.859,0.53
					c-0.445,0-1.068-0.025-1.871-0.076L81.61,38.672z M83.147,33.926h0.59c0.313,0,0.539-0.076,0.674-0.229
					c0.135-0.153,0.201-0.39,0.201-0.71c0-0.32-0.062-0.56-0.188-0.72c-0.127-0.16-0.303-0.24-0.528-0.24l-0.748,0.045V33.926z
					 M83.147,37.397c0.262,0.021,0.529,0.033,0.804,0.033c0.554,0,0.831-0.375,0.831-1.127s-0.32-1.126-0.963-1.126h-0.673
					L83.147,37.397L83.147,37.397z"/>
				<path fill="#FFFFFF" d="M87.366,38.672V30.83c0.754-0.072,1.44-0.109,2.062-0.109c0.934,0,1.585,0.193,1.955,0.579
					c0.37,0.386,0.556,1.003,0.556,1.851c0,1.152-0.354,1.91-1.065,2.271l1.398,3.25h-1.732l-1.188-2.989h-0.446v2.989H87.366z
					 M88.903,34.35h0.705c0.239,0,0.43-0.098,0.565-0.291s0.205-0.493,0.205-0.9c0-0.408-0.055-0.703-0.162-0.887
					c-0.106-0.185-0.317-0.276-0.631-0.276l-0.684,0.065L88.903,34.35L88.903,34.35z"/>
				<path fill="#FFFFFF" d="M93.03,34.664c0-1.404,0.182-2.412,0.544-3.024c0.361-0.612,1.056-0.919,2.078-0.919
					c1.021,0,1.716,0.307,2.077,0.919c0.362,0.612,0.545,1.62,0.545,3.024c0,0.74-0.033,1.347-0.103,1.815
					c-0.065,0.47-0.19,0.89-0.374,1.258c-0.183,0.367-0.449,0.634-0.802,0.798s-0.8,0.246-1.345,0.246
					c-0.546,0-0.993-0.082-1.344-0.246c-0.35-0.164-0.616-0.431-0.801-0.798c-0.185-0.368-0.311-0.788-0.377-1.258
					C93.063,36.011,93.03,35.404,93.03,34.664z M94.813,32.484c-0.15,0.37-0.226,1.113-0.226,2.229c0,1.116,0.076,1.871,0.229,2.269
					c0.152,0.395,0.431,0.593,0.834,0.593c0.402,0,0.681-0.198,0.834-0.593c0.152-0.396,0.229-1.152,0.229-2.269
					c0-1.116-0.074-1.858-0.225-2.229c-0.148-0.37-0.43-0.555-0.839-0.555C95.24,31.929,94.962,32.114,94.813,32.484z"/>
				<path fill="#FFFFFF" d="M99.323,38.672V30.83h2.227l1.635,7.003V30.83h1.334v7.842h-2.356l-1.346-5.715v5.715H99.323z"/>
				<path fill="#FFFFFF" d="M105.272,38.672v-1.491l2.8-5.011h-2.543v-1.34h4.179v1.498l-2.789,5.004h2.674v1.34H105.272
					L105.272,38.672z"/>
				<path fill="#FFFFFF" d="M110.889,38.672V30.83h4.015v1.209h-2.479v1.975h2.193v1.208h-2.193v2.242h2.479v1.208H110.889
					L110.889,38.672z"/>
				<path fill="#FFFFFF" d="M81.78,52.112v-7.844h1.58l1.063,4.201l1.06-4.201h1.452v7.844h-0.93V45.08l-1.193,4.403l-0.863-0.021
					l-1.262-4.664v7.313H81.78L81.78,52.112z"/>
				<path fill="#FFFFFF" d="M88.286,52.112v-7.844h3.675v0.832h-2.702v2.564h2.424v0.805h-2.424v2.812h2.702v0.831H88.286z"/>
				<path fill="#FFFFFF" d="M93.548,52.112v-7.844h1.58l1.064,4.201l1.059-4.201h1.453v7.844h-0.93V45.08l-1.194,4.403l-0.864-0.021
					l-1.261-4.664v7.313H93.548L93.548,52.112z"/>
				<path fill="#FFFFFF" d="M100.054,52.112v-7.844c0.691-0.051,1.283-0.075,1.771-0.075c0.703,0,1.236,0.159,1.602,0.479
					s0.547,0.844,0.547,1.568c0,0.434-0.087,0.799-0.262,1.092c-0.176,0.295-0.387,0.494-0.635,0.6
					c0.723,0.256,1.083,0.847,1.083,1.771s-0.188,1.571-0.564,1.938c-0.376,0.363-0.923,0.547-1.64,0.547
					c-0.643,0-1.188-0.02-1.635-0.055L100.054,52.112z M101.026,47.59h0.93c0.496,0,0.812-0.19,0.951-0.575
					c0.062-0.18,0.094-0.461,0.094-0.847s-0.073-0.678-0.219-0.875c-0.146-0.196-0.422-0.295-0.826-0.295
					c-0.361,0-0.633,0.019-0.814,0.056l-0.114,0.01L101.026,47.59L101.026,47.59z M101.026,51.33
					c0.372,0.037,0.725,0.056,1.059,0.056s0.597-0.107,0.79-0.32c0.193-0.215,0.29-0.6,0.29-1.153s-0.082-0.946-0.246-1.175
					s-0.447-0.344-0.848-0.344h-1.045V51.33z"/>
				<path fill="#FFFFFF" d="M105.472,52.112v-7.844h3.674v0.832h-2.7v2.564h2.423v0.805h-2.423v2.812h2.7v0.831H105.472z"/>
				<path fill="#FFFFFF" d="M110.732,52.112v-7.844c0.642-0.051,1.271-0.075,1.892-0.075c0.805,0,1.367,0.194,1.688,0.581
					c0.321,0.389,0.482,0.955,0.482,1.701c0,1.193-0.372,1.934-1.115,2.221l1.529,3.416h-1.072l-1.432-3.26h-1v3.26H110.732z
					 M111.706,48.05h1.055c0.344,0,0.603-0.105,0.777-0.314c0.175-0.211,0.262-0.6,0.262-1.17s-0.076-0.975-0.229-1.211
					c-0.154-0.237-0.425-0.355-0.812-0.355c-0.412,0-0.718,0.018-0.918,0.055l-0.137,0.01L111.706,48.05L111.706,48.05z"/>
			</g>
		</g>
	</g>
</g>
<g>
</g>
<g>
</g>
<g>
</g>
<g>
</g>
<g>
</g>
<g>
</g>
</svg>
