<?xml version="1.0" encoding="utf-8"?>
<!-- Generator: Adobe Illustrator 16.0.4, SVG Export Plug-In . SVG Version: 6.00 Build 0)  -->
<!DOCTYPE svg PUBLIC "-//W3C//DTD SVG 1.1//EN" "http://www.w3.org/Graphics/SVG/1.1/DTD/svg11.dtd">
<svg version="1.1" id="Layer_1" xmlns="http://www.w3.org/2000/svg" xmlns:xlink="http://www.w3.org/1999/xlink" x="0px" y="0px"
	 width="140px" height="70px" viewBox="0 0 140 70" enable-background="new 0 0 140 70" xml:space="preserve">
<g>
	<rect fill="#3B3B39" width="140" height="70"/>
	<g>
		<g>
			<path fill="#FFFFFF" d="M48.941,41.914c-0.542,0.158-0.975,0.213-1.539,0.213c-4.633,0-11.441-16.192-11.441-21.583
				c0-1.986,0.472-2.648,1.135-3.215c-5.674,0.661-12.482,2.743-14.658,5.389c-0.472,0.663-0.756,1.702-0.756,3.026
				c0,8.415,8.984,27.517,15.319,27.517C39.931,53.261,44.875,48.436,48.941,41.914L48.941,41.914z"/>
			<path fill="#FFFFFF" d="M45.984,16.76c5.861,0,11.725,0.946,11.725,4.256c0,6.713-4.256,14.846-6.43,14.846
				c-3.877,0-8.699-10.778-8.699-16.169C42.58,17.232,43.525,16.76,45.984,16.76z"/>
		</g>
		<g>
			<rect x="68.58" y="6.086" fill="#FFFFFF" width="0.326" height="58.318"/>
			<g>
				<path fill="#FFFFFF" d="M81.002,18.241v-0.854h4.424v0.854h-1.729v6.988h-0.973v-6.988H81.002z"/>
				<path fill="#FFFFFF" d="M86.383,17.388h1.078l1.471,3.26l1.471-3.26h1.023l-2.039,4.2v3.643h-0.996v-3.643L86.383,17.388z"/>
				<path fill="#FFFFFF" d="M92.484,25.229v-7.842c0.641-0.051,1.271-0.076,1.893-0.076c1.457,0,2.189,0.807,2.191,2.422
					c0,0.873-0.168,1.514-0.504,1.918c-0.338,0.406-0.893,0.609-1.668,0.609h-0.939v2.969H92.484z M93.457,21.456h1.057
					c0.707,0,1.062-0.54,1.062-1.621c0-0.596-0.082-1.031-0.242-1.307c-0.16-0.275-0.434-0.413-0.818-0.413
					c-0.412,0-0.719,0.019-0.92,0.054l-0.137,0.011v3.275H93.457z"/>
				<path fill="#FFFFFF" d="M98.172,24.35c-0.334-0.639-0.502-1.664-0.502-3.073c0-1.411,0.168-2.426,0.502-3.042
					c0.336-0.616,0.947-0.924,1.838-0.924s1.502,0.308,1.838,0.924s0.504,1.63,0.504,3.042c0,1.409-0.168,2.435-0.504,3.073
					c-0.336,0.638-0.947,0.957-1.838,0.957S98.508,24.988,98.172,24.35z M98.957,18.803c-0.193,0.439-0.293,1.264-0.293,2.475
					c0,1.21,0.102,2.051,0.301,2.521c0.197,0.47,0.547,0.705,1.047,0.705s0.848-0.235,1.047-0.705
					c0.199-0.471,0.299-1.312,0.299-2.521c0-1.211-0.098-2.035-0.293-2.475s-0.547-0.66-1.053-0.66
					C99.504,18.143,99.152,18.363,98.957,18.803z"/>
				<path fill="#FFFFFF" d="M103.383,25.104v-0.832c0.576,0.121,1.035,0.182,1.379,0.182c0.678,0,1.018-0.445,1.018-1.332
					c0-0.554-0.064-0.952-0.197-1.193c-0.131-0.242-0.387-0.363-0.766-0.363h-0.92v-0.803h0.805c0.635,0,0.951-0.46,0.951-1.379
					c0-0.434-0.068-0.749-0.207-0.945c-0.139-0.197-0.354-0.296-0.646-0.296c-0.295,0-0.748,0.062-1.359,0.188v-0.805
					c0.703-0.143,1.156-0.213,1.355-0.213c0.611,0,1.066,0.162,1.363,0.483c0.297,0.323,0.445,0.885,0.445,1.688
					c0,0.909-0.281,1.448-0.848,1.62c0.664,0.09,0.996,0.725,0.996,1.904c0,0.814-0.156,1.4-0.471,1.759
					c-0.312,0.36-0.791,0.541-1.434,0.541C104.447,25.31,103.959,25.243,103.383,25.104z"/>
				<path fill="#FFFFFF" d="M81.662,37.19c-0.182-0.598-0.271-1.38-0.271-2.341c0-0.962,0.061-1.702,0.18-2.222
					c0.121-0.52,0.312-0.917,0.572-1.193c0.26-0.277,0.557-0.464,0.887-0.561c0.328-0.097,0.711-0.145,1.148-0.145
					c0.436,0,0.939,0.062,1.518,0.186v1.318c-0.574-0.109-1.045-0.164-1.418-0.164c-0.408,0-0.693,0.065-0.855,0.197
					c-0.164,0.135-0.285,0.389-0.359,0.76c-0.074,0.37-0.111,1.019-0.111,1.944c0,0.926,0.068,1.566,0.207,1.923
					s0.408,0.535,0.811,0.535c0.215,0,0.371-0.003,0.471-0.012v-1.777h-0.717v-1.317h2.209v4.25
					c-0.699,0.135-1.355,0.203-1.963,0.203c-0.008,0-0.018-0.002-0.027-0.006c-0.613,0-1.102-0.113-1.463-0.34
					C82.113,38.202,81.842,37.79,81.662,37.19z"/>
				<path fill="#FFFFFF" d="M87.111,34.662c0-1.403,0.184-2.413,0.545-3.023c0.361-0.613,1.057-0.92,2.078-0.92
					s1.715,0.307,2.078,0.92c0.361,0.61,0.543,1.62,0.543,3.023c0,0.74-0.033,1.346-0.102,1.815c-0.066,0.472-0.191,0.89-0.373,1.26
					c-0.184,0.366-0.449,0.634-0.803,0.797c-0.352,0.165-0.801,0.247-1.346,0.247s-0.992-0.082-1.342-0.247
					c-0.352-0.163-0.617-0.431-0.801-0.797c-0.186-0.37-0.312-0.788-0.377-1.26C87.145,36.008,87.111,35.402,87.111,34.662z
					 M88.895,32.481c-0.15,0.371-0.225,1.113-0.225,2.229c0,1.117,0.076,1.873,0.229,2.268c0.154,0.396,0.432,0.594,0.834,0.594
					c0.404,0,0.682-0.198,0.834-0.594c0.154-0.396,0.23-1.15,0.23-2.268c0-1.115-0.074-1.857-0.227-2.229
					c-0.146-0.369-0.428-0.555-0.838-0.555S89.043,32.112,88.895,32.481z"/>
				<path fill="#FFFFFF" d="M93.707,38.67v-7.842h1.537v6.525h2.273v1.316L93.707,38.67L93.707,38.67z"/>
				<path fill="#FFFFFF" d="M98.559,38.67v-7.842c0.904-0.072,1.582-0.109,2.035-0.109c0.451,0,0.836,0.051,1.152,0.15
					c0.318,0.1,0.602,0.285,0.854,0.557c0.488,0.521,0.732,1.582,0.732,3.18c0,2.082-0.393,3.364-1.182,3.841
					c-0.371,0.222-0.863,0.335-1.477,0.335L98.559,38.67z M100.096,37.396c0.143,0.029,0.381,0.044,0.717,0.044l0.004,0.005
					c0.332,0.004,0.574-0.188,0.73-0.581c0.15-0.394,0.229-1.055,0.229-1.98c0-0.927-0.039-1.59-0.117-1.984
					c-0.078-0.393-0.18-0.639-0.301-0.736c-0.123-0.097-0.311-0.146-0.566-0.146l-0.693,0.043v5.336H100.096z"/>
				<path fill="#FFFFFF" d="M81.785,52.111v-7.844h1.58l1.064,4.202l1.059-4.202h1.453v7.844h-0.93v-7.033l-1.195,4.403
					l-0.863-0.021l-1.262-4.662v7.313H81.785z"/>
				<path fill="#FFFFFF" d="M88.291,52.111v-7.844h3.676v0.83h-2.701v2.565h2.422v0.805h-2.422v2.812h2.701v0.832H88.291z"/>
				<path fill="#FFFFFF" d="M93.551,52.111v-7.844h1.582l1.062,4.202l1.061-4.202h1.451v7.844h-0.93v-7.033l-1.193,4.403
					l-0.863-0.021l-1.262-4.662v7.313H93.551z"/>
				<path fill="#FFFFFF" d="M100.057,52.111v-7.844c0.693-0.051,1.283-0.077,1.771-0.077c0.705,0,1.238,0.159,1.604,0.481
					c0.365,0.32,0.547,0.842,0.547,1.567c0,0.435-0.088,0.799-0.262,1.093c-0.176,0.293-0.389,0.492-0.637,0.601
					c0.723,0.254,1.084,0.845,1.084,1.771c0,0.924-0.188,1.571-0.564,1.937c-0.377,0.363-0.922,0.547-1.641,0.547
					c-0.641,0-1.186-0.019-1.635-0.056L100.057,52.111z M101.031,47.588h0.93c0.496,0,0.812-0.19,0.951-0.576
					c0.062-0.178,0.094-0.46,0.094-0.846s-0.072-0.677-0.219-0.875c-0.146-0.197-0.422-0.295-0.826-0.295
					c-0.359,0-0.633,0.019-0.814,0.056l-0.115,0.012V47.588L101.031,47.588z M101.031,51.328c0.371,0.037,0.725,0.055,1.059,0.055
					s0.598-0.105,0.791-0.319c0.191-0.215,0.289-0.599,0.289-1.152c0-0.555-0.082-0.946-0.246-1.175
					c-0.164-0.23-0.445-0.343-0.848-0.343h-1.045V51.328z"/>
				<path fill="#FFFFFF" d="M105.475,52.111v-7.844h3.676v0.83h-2.701v2.565h2.422v0.805h-2.422v2.812h2.701v0.832H105.475z"/>
				<path fill="#FFFFFF" d="M110.736,52.111v-7.844c0.643-0.051,1.273-0.077,1.895-0.077c0.803,0,1.363,0.195,1.688,0.582
					c0.322,0.389,0.482,0.955,0.482,1.7c0,1.194-0.371,1.936-1.115,2.223l1.529,3.416h-1.072l-1.43-3.262h-1.004v3.262H110.736z
					 M111.709,48.047h1.059c0.342,0,0.602-0.104,0.773-0.313c0.178-0.211,0.266-0.6,0.266-1.17s-0.078-0.974-0.23-1.211
					c-0.152-0.236-0.424-0.355-0.809-0.355c-0.412,0-0.719,0.018-0.92,0.055l-0.139,0.012V48.047z"/>
			</g>
		</g>
	</g>
</g>
<g>
</g>
<g>
</g>
<g>
</g>
<g>
</g>
<g>
</g>
<g>
</g>
</svg>
