<?xml version="1.0" encoding="utf-8"?>
<!-- Generator: Adobe Illustrator 16.0.4, SVG Export Plug-In . SVG Version: 6.00 Build 0)  -->
<!DOCTYPE svg PUBLIC "-//W3C//DTD SVG 1.1//EN" "http://www.w3.org/Graphics/SVG/1.1/DTD/svg11.dtd">
<svg version="1.1" id="Layer_1" xmlns="http://www.w3.org/2000/svg" xmlns:xlink="http://www.w3.org/1999/xlink" x="0px" y="0px"
	 width="140px" height="70px" viewBox="0 0 140 70" enable-background="new 0 0 140 70" xml:space="preserve">
<g>
	<rect fill="#F68522" width="140" height="70"/>
	<g>
		<g>
			<path fill="#FFFFFF" d="M44.692,41.914c-0.541,0.16-0.973,0.215-1.537,0.215c-4.635,0-11.443-16.196-11.443-21.585
				c0-1.986,0.473-2.648,1.135-3.216c-5.674,0.664-12.48,2.744-14.656,5.391c-0.475,0.663-0.758,1.702-0.758,3.026
				c0,8.415,8.984,27.516,15.318,27.516C35.684,53.261,40.627,48.436,44.692,41.914L44.692,41.914z"/>
			<path fill="#FFFFFF" d="M41.735,16.762c5.861,0,11.725,0.945,11.725,4.253c0,6.715-4.254,14.848-6.43,14.848
				c-3.875,0-8.699-10.78-8.699-16.17C38.33,17.233,39.276,16.762,41.735,16.762z"/>
		</g>
		<g>
			<rect x="64.333" y="6.086" fill="#FFFFFF" width="0.323" height="58.32"/>
			<g>
				<path fill="#FFFFFF" d="M76.754,18.241v-0.853h4.424v0.853h-1.73v6.989h-0.973v-6.989H76.754z"/>
				<path fill="#FFFFFF" d="M82.135,17.389h1.078l1.469,3.259l1.473-3.259h1.023l-2.041,4.199v3.644h-0.994v-3.644L82.135,17.389z"
					/>
				<path fill="#FFFFFF" d="M88.234,25.23v-7.842c0.643-0.052,1.273-0.077,1.893-0.077c1.459,0,2.189,0.808,2.193,2.423
					c0,0.872-0.168,1.512-0.506,1.918c-0.336,0.406-0.893,0.608-1.668,0.608h-0.938v2.97H88.234z M89.209,21.457h1.055
					c0.707,0,1.062-0.54,1.062-1.621c0-0.596-0.082-1.031-0.242-1.307c-0.16-0.276-0.434-0.414-0.82-0.414
					c-0.412,0-0.717,0.019-0.918,0.054l-0.137,0.012V21.457L89.209,21.457z"/>
				<path fill="#FFFFFF" d="M93.924,24.35c-0.336-0.639-0.504-1.663-0.504-3.073c0-1.411,0.168-2.425,0.504-3.041
					c0.336-0.616,0.947-0.925,1.838-0.925c0.889,0,1.502,0.309,1.836,0.925c0.336,0.616,0.504,1.629,0.504,3.041
					c0,1.41-0.168,2.435-0.504,3.073c-0.334,0.639-0.947,0.957-1.836,0.957C94.871,25.308,94.26,24.989,93.924,24.35z
					 M94.709,18.803c-0.195,0.439-0.293,1.265-0.293,2.475c0,1.211,0.1,2.051,0.297,2.521c0.199,0.47,0.549,0.705,1.049,0.705
					c0.498,0,0.848-0.235,1.047-0.705c0.199-0.471,0.297-1.311,0.297-2.521c0-1.209-0.096-2.035-0.291-2.475s-0.547-0.66-1.053-0.66
					C95.254,18.142,94.904,18.363,94.709,18.803z"/>
				<path fill="#FFFFFF" d="M99.135,25.104v-0.831c0.576,0.12,1.035,0.181,1.377,0.181c0.678,0,1.018-0.444,1.018-1.332
					c0-0.554-0.064-0.952-0.197-1.192c-0.131-0.242-0.387-0.362-0.766-0.362h-0.918v-0.804h0.805c0.633,0,0.951-0.46,0.951-1.378
					c0-0.435-0.07-0.75-0.209-0.946c-0.139-0.197-0.354-0.296-0.646-0.296s-0.748,0.062-1.359,0.188v-0.804
					c0.703-0.143,1.156-0.214,1.355-0.214c0.613,0,1.066,0.162,1.365,0.484c0.297,0.322,0.445,0.885,0.445,1.688
					c0,0.908-0.283,1.449-0.848,1.62c0.664,0.091,0.994,0.726,0.994,1.904c0,0.814-0.156,1.401-0.469,1.76
					c-0.314,0.359-0.791,0.54-1.436,0.54C100.199,25.31,99.711,25.243,99.135,25.104z"/>
				<path fill="#FFFFFF" d="M77.367,38.671V30.83c0.754-0.073,1.441-0.109,2.061-0.109c0.973,0,1.646,0.211,2.025,0.634
					c0.379,0.423,0.566,1.097,0.566,2.021s-0.201,1.587-0.605,1.99c-0.402,0.403-1.027,0.604-1.871,0.604h-0.641v2.7L77.367,38.671
					L77.367,38.671z M78.902,34.652h0.705c0.264,0,0.471-0.112,0.623-0.337c0.154-0.225,0.23-0.547,0.23-0.968
					c0-0.42-0.062-0.739-0.188-0.959c-0.123-0.219-0.346-0.328-0.664-0.328s-0.555,0.021-0.709,0.065v2.527H78.902z"/>
				<path fill="#FFFFFF" d="M83.197,38.671V30.83h1.537v6.523h2.273v1.317L83.197,38.671L83.197,38.671z"/>
				<path fill="#FFFFFF" d="M87.734,38.671l1.744-7.841h2.27l1.695,7.841h-1.559l-0.361-1.824h-1.875l-0.355,1.824H87.734z
					 M89.906,35.527h1.371l-0.695-3.708L89.906,35.527z"/>
				<path fill="#FFFFFF" d="M93.516,32.169v-1.34h4.764v1.34h-1.613v6.501h-1.535v-6.501H93.516z"/>
				<path fill="#FFFFFF" d="M99.119,38.671v-1.208H99.9v-5.425h-0.781V30.83h3.102v1.208h-0.781v5.425h0.781v1.208H99.119z"/>
				<path fill="#FFFFFF" d="M103.422,38.671V30.83h2.227l1.635,7.002V30.83h1.336v7.841h-2.357l-1.346-5.715v5.715H103.422z"/>
				<path fill="#FFFFFF" d="M110.074,36.266V30.83h1.535v5.647c0,0.636,0.283,0.953,0.846,0.953s0.846-0.317,0.846-0.953V30.83
					h1.537v5.436c0,0.896-0.199,1.536-0.598,1.914c-0.396,0.38-0.99,0.567-1.781,0.567c-0.793,0-1.387-0.188-1.787-0.567
					C110.273,37.802,110.074,37.161,110.074,36.266z"/>
				<path fill="#FFFFFF" d="M116.357,38.671V30.83h2.33l0.746,3.403l0.76-3.403h2.283v7.841h-1.492v-6.709l-0.969,4.105
					l-1.164-0.053l-1.002-4.023v6.68H116.357L116.357,38.671z"/>
				<path fill="#FFFFFF" d="M77.535,52.111v-7.844h1.58l1.064,4.202l1.059-4.202h1.453v7.844h-0.93v-7.033l-1.195,4.405
					l-0.861-0.022l-1.264-4.663v7.313H77.535z"/>
				<path fill="#FFFFFF" d="M84.041,52.111v-7.844h3.676V45.1h-2.703v2.564h2.424v0.804h-2.424v2.812h2.703v0.831H84.041
					L84.041,52.111z"/>
				<path fill="#FFFFFF" d="M89.303,52.111v-7.844h1.58l1.062,4.202l1.061-4.202h1.453v7.844h-0.932v-7.033l-1.191,4.405
					l-0.865-0.022l-1.26-4.663v7.313H89.303z"/>
				<path fill="#FFFFFF" d="M95.809,52.111v-7.844c0.691-0.051,1.283-0.075,1.771-0.075c0.703,0,1.236,0.159,1.602,0.479
					s0.547,0.842,0.547,1.567c0,0.435-0.086,0.799-0.262,1.093c-0.176,0.293-0.387,0.493-0.635,0.601
					c0.723,0.256,1.084,0.846,1.084,1.771c0,0.925-0.189,1.57-0.564,1.938c-0.377,0.364-0.924,0.547-1.641,0.547
					c-0.643,0-1.188-0.019-1.635-0.056L95.809,52.111z M96.781,47.589h0.93c0.496,0,0.812-0.191,0.953-0.575
					c0.061-0.18,0.092-0.462,0.092-0.847c0-0.387-0.072-0.677-0.219-0.876c-0.146-0.197-0.42-0.295-0.826-0.295
					c-0.359,0-0.631,0.019-0.814,0.056l-0.113,0.012v2.525H96.781z M96.781,51.329c0.373,0.036,0.725,0.054,1.059,0.054
					s0.598-0.104,0.791-0.319s0.289-0.599,0.289-1.152c0-0.555-0.082-0.946-0.246-1.175c-0.164-0.23-0.445-0.343-0.848-0.343h-1.045
					V51.329L96.781,51.329z"/>
				<path fill="#FFFFFF" d="M101.227,52.111v-7.844h3.674V45.1h-2.701v2.564h2.424v0.804h-2.424v2.812h2.701v0.831H101.227
					L101.227,52.111z"/>
				<path fill="#FFFFFF" d="M106.488,52.111v-7.844c0.641-0.051,1.271-0.075,1.893-0.075c0.803,0,1.365,0.193,1.688,0.582
					c0.322,0.387,0.482,0.955,0.482,1.701c0,1.191-0.371,1.933-1.115,2.22l1.529,3.416h-1.072l-1.432-3.262h-1v3.262H106.488
					L106.488,52.111z M107.461,48.048h1.055c0.344,0,0.604-0.104,0.777-0.314c0.176-0.209,0.262-0.6,0.262-1.17
					s-0.076-0.974-0.229-1.211c-0.152-0.236-0.424-0.355-0.811-0.355c-0.412,0-0.717,0.019-0.918,0.055l-0.137,0.012V48.048z"/>
			</g>
		</g>
	</g>
</g>
<g>
</g>
<g>
</g>
<g>
</g>
<g>
</g>
<g>
</g>
<g>
</g>
</svg>
